<?xml version="1.0" encoding="UTF-8"?>
<svg version="1.1" xmlns="http://www.w3.org/2000/svg" width="1000" height="1110">
<path d="M0 0 C330 0 660 0 1000 0 C1000 366.3 1000 732.6 1000 1110 C670 1110 340 1110 0 1110 C0 743.7 0 377.4 0 0 Z " fill="#161616" transform="translate(0,0)"/>
<path d="M0 0 C0 0.66 0 1.32 0 2 C0.763125 1.814375 1.52625 1.62875 2.3125 1.4375 C5 1 5 1 8 2 C8.928125 1.5359375 8.928125 1.5359375 9.875 1.0625 C12.40597375 -0.20298687 14.20727405 -0.15515144 17 0 C17.2165625 1.11375 17.2165625 1.11375 17.4375 2.25 C17.91807263 4.87890593 17.91807263 4.87890593 18.625 6.875 C19.17653468 10.00036318 18.45415873 12.8776587 18 16 C18.33 16.99 18.66 17.98 19 19 C19 19.99 19 20.98 19 22 C19.99 23.485 19.99 23.485 21 25 C22.07569302 31.10455791 22.09173732 37.06690441 22 43.25 C21.97441479 45.0051455 21.9534087 46.76036512 21.9375 48.515625 C21.92009766 49.66466309 21.92009766 49.66466309 21.90234375 50.83691406 C21.92733248 53.01388074 21.92733248 53.01388074 22.5390625 55.11621094 C23.25107701 58.02611769 22.52727025 59.47668393 21 62 C15.81638298 64.53153389 10.45963825 64.81987942 5 63 C3.79371992 65.33214148 2.8345262 67.49642139 2 70 C1.01 70 0.02 70 -1 70 C-1 69.34 -1 68.68 -1 68 C-1.45375 68.495 -1.9075 68.99 -2.375 69.5 C-4 71 -4 71 -6 71 C-6 70.34 -6 69.68 -6 69 C-8.31 69 -10.62 69 -13 69 C-13 69.66 -13 70.32 -13 71 C-19.52622082 72.41107477 -19.52622082 72.41107477 -22.890625 71.47265625 C-25.35155811 70.92122494 -27.25677867 71.10751482 -29.75 71.4375 C-30.54921875 71.53933594 -31.3484375 71.64117187 -32.171875 71.74609375 C-33.07679688 71.87177734 -33.07679688 71.87177734 -34 72 C-34 71.34 -34 70.68 -34 70 C-34.66 70 -35.32 70 -36 70 C-36 70.66 -36 71.32 -36 72 C-38.97 71.67 -41.94 71.34 -45 71 C-45.495 72.98 -45.495 72.98 -46 75 C-47.6396875 75.4021875 -47.6396875 75.4021875 -49.3125 75.8125 C-52.61692663 76.87663739 -53.94960422 77.34654664 -56 80 C-56.99 79.01 -57.98 78.02 -59 77 C-61.15811388 77.94729537 -61.15811388 77.94729537 -63 80 C-65 80 -67 80 -69 80 C-69.66 80.66 -70.32 81.32 -71 82 C-73.625 81.625 -73.625 81.625 -76 81 C-76 80.34 -76 79.68 -76 79 C-76.763125 79.185625 -77.52625 79.37125 -78.3125 79.5625 C-81 80 -81 80 -84 79 C-84.495 80.485 -84.495 80.485 -85 82 C-85.66 81.67 -86.32 81.34 -87 81 C-87.37125 81.804375 -87.7425 82.60875 -88.125 83.4375 C-90 86 -90 86 -92.875 86.9375 C-96.15933538 87.00318671 -98.08651552 86.45674224 -101 85 C-101 85.66 -101 86.32 -101 87 C-105.85326829 87.91818589 -110.69099309 88.34248035 -115.609375 88.71875 C-118.01129427 88.86412861 -118.01129427 88.86412861 -120 90 C-120.804375 90.12375 -121.60875 90.2475 -122.4375 90.375 C-125.02806159 90.73461113 -125.02806159 90.73461113 -126.19921875 92.46484375 C-128.92065463 94.78485308 -131.93704308 94.84476796 -135.375 95.1875 C-136.10581787 95.26790527 -136.83663574 95.34831055 -137.58959961 95.43115234 C-147.03700011 96.35723257 -156.52053355 96.16679413 -166 96 C-165.71848084 93.87363187 -165.42446737 91.74891472 -165.125 89.625 C-164.88136719 87.84996094 -164.88136719 87.84996094 -164.6328125 86.0390625 C-164 83 -164 83 -162 81 C-161.60235737 79.01178687 -161.26224651 77.01055661 -161 75 C-160.34 75 -159.68 75 -159 75 C-159 74.01 -159 73.02 -159 72 C-158.01 71.505 -158.01 71.505 -157 71 C-157.33 67.7 -157.66 64.4 -158 61 C-157.34 61 -156.68 61 -156 61 C-156 59.35 -156 57.7 -156 56 C-156.66 55.67 -157.32 55.34 -158 55 C-157.34 54.34 -156.68 53.68 -156 53 C-156.32041397 50.39719432 -156.32041397 50.39719432 -157 48 C-155.35 48 -153.7 48 -152 48 C-152 48.66 -152 49.32 -152 50 C-151.34 50 -150.68 50 -150 50 C-149.855625 49.236875 -149.71125 48.47375 -149.5625 47.6875 C-149 45 -149 45 -148 42 C-148.66 42 -149.32 42 -150 42 C-150.3540919 35.48208608 -150.03901852 30.82478551 -147 25 C-146.01 25.33 -145.02 25.66 -144 26 C-143.29875 25.690625 -142.5975 25.38125 -141.875 25.0625 C-138.4508489 23.79705285 -135.74213919 23.90675398 -132.1328125 23.99609375 C-129.65012121 24.0006408 -127.42434151 23.51038769 -125 23 C-122.66698014 22.96175377 -120.33288492 22.95425716 -118 23 C-118 21.68 -118 20.36 -118 19 C-114.95613276 18.91773332 -112.92824652 19.02391783 -110 20 C-110 19.01 -110 18.02 -110 17 C-106.57015811 16.05383672 -103.55824425 16 -100 16 C-99.505 16.99 -99.505 16.99 -99 18 C-98.113125 17.649375 -97.22625 17.29875 -96.3125 16.9375 C-92.90545213 15.97324117 -91.31100851 15.8963305 -88 17 C-87.01 17.99 -87.01 17.99 -86 19 C-86 18.01 -86 17.02 -86 16 C-85.360625 16.185625 -84.72125 16.37125 -84.0625 16.5625 C-83.381875 16.706875 -82.70125 16.85125 -82 17 C-81.505 16.505 -81.505 16.505 -81 16 C-80.01 15.690625 -79.02 15.38125 -78 15.0625 C-74.88592015 14.35001566 -74.88592015 14.35001566 -74 12 C-73.01 12 -72.02 12 -71 12 C-71 12.66 -71 13.32 -71 14 C-68.66834966 14.33498301 -68.66834966 14.33498301 -66 14 C-63.68622853 12.10415891 -63.68622853 12.10415891 -62 10 C-62 10.66 -62 11.32 -62 12 C-60.68 12 -59.36 12 -58 12 C-58 11.01 -58 10.02 -58 9 C-53.74407932 7.83929436 -50.29748027 8.0269856 -46 9 C-43.52054828 12.71917758 -43.60005632 15.35904115 -43.34375 19.72265625 C-43.20106938 22.19469659 -43.20106938 22.19469659 -41 24 C-40.525625 22.783125 -40.05125 21.56625 -39.5625 20.3125 C-39.29566406 19.62800781 -39.02882813 18.94351562 -38.75390625 18.23828125 C-37.94805347 15.84577532 -37.44775995 13.48224203 -37 11 C-36.32453125 10.87882812 -35.6490625 10.75765625 -34.953125 10.6328125 C-33.61507812 10.38144531 -33.61507812 10.38144531 -32.25 10.125 C-30.92742187 9.88136719 -30.92742187 9.88136719 -29.578125 9.6328125 C-27.10266333 9.02519918 -25.17358885 8.32177701 -23 7 C-22.67 6.34 -22.34 5.68 -22 5 C-18.9375 4.375 -18.9375 4.375 -16 4 C-16 3.34 -16 2.68 -16 2 C-15.34 2 -14.68 2 -14 2 C-14 2.66 -14 3.32 -14 4 C-11.36 3.67 -8.72 3.34 -6 3 C-6 2.34 -6 1.68 -6 1 C-3.92446352 0.4465236 -2.15634036 0 0 0 Z " fill="#454849" transform="translate(598,440)"/>
<path d="M0 0 C0.87398437 0.01804687 1.74796875 0.03609375 2.6484375 0.0546875 C3.62683594 0.08949219 3.62683594 0.08949219 4.625 0.125 C5.20869246 4.6827688 5.77584757 9.24225779 6.33398438 13.80322266 C6.60932173 15.99991578 6.90434332 18.19311241 7.203125 20.38671875 C8.79882447 32.64281048 8.83962332 44.77920609 8.625 57.125 C7.0426994 57.46320166 5.45910625 57.79535939 3.875 58.125 C2.99328125 58.310625 2.1115625 58.49625 1.203125 58.6875 C-1.375 59.125 -1.375 59.125 -5.375 59.125 C-6.14540851 53.05803301 -6.47206112 47.23985027 -6.375 41.125 C-7.035 41.125 -7.695 41.125 -8.375 41.125 C-8.48457031 41.80304688 -8.59414063 42.48109375 -8.70703125 43.1796875 C-9.81287519 49.6709015 -11.33798092 55.86456137 -13.375 62.125 C-14.01308594 62.18558594 -14.65117188 62.24617187 -15.30859375 62.30859375 C-16.13488281 62.39238281 -16.96117187 62.47617187 -17.8125 62.5625 C-18.63621094 62.64371094 -19.45992187 62.72492187 -20.30859375 62.80859375 C-22.36162025 62.91430815 -22.36162025 62.91430815 -23.375 64.125 C-25.04117115 64.16563832 -26.70888095 64.167721 -28.375 64.125 C-28.43558594 63.13757813 -28.49617187 62.15015625 -28.55859375 61.1328125 C-28.68427734 59.21082031 -28.68427734 59.21082031 -28.8125 57.25 C-28.89371094 55.97382813 -28.97492187 54.69765625 -29.05859375 53.3828125 C-29.16706027 50.24199848 -29.16706027 50.24199848 -30.375 48.125 C-30.55675781 48.7540625 -30.73851562 49.383125 -30.92578125 50.03125 C-31.4503868 51.81759917 -31.99315823 53.59868052 -32.55078125 55.375 C-33.39607012 58.04287427 -33.39607012 58.04287427 -33.85546875 60.5 C-34.42016844 62.80974912 -34.86744572 64.27524014 -36.375 66.125 C-41.54603063 68.09491643 -46.8969272 68.20468106 -52.375 68.125 C-51.12430937 56.74245195 -47.97793739 45.86158581 -44.51953125 34.9765625 C-42.5845826 28.65584763 -41.02406442 22.22231365 -39.39306641 15.81811523 C-39.1460498 14.85333252 -38.8990332 13.8885498 -38.64453125 12.89453125 C-38.31352417 11.58899292 -38.31352417 11.58899292 -37.97583008 10.25708008 C-37.375 8.125 -37.375 8.125 -36.375 6.125 C-34.10667936 5.49265486 -31.80798739 4.96726125 -29.5 4.5 C-28.24445312 4.23960937 -26.98890625 3.97921875 -25.6953125 3.7109375 C-22.375 3.125 -22.375 3.125 -19.375 3.125 C-18.47261253 5.83216242 -18.25648698 7.36276768 -18.27734375 10.13671875 C-18.28056641 10.89404297 -18.28378906 11.65136719 -18.28710938 12.43164062 C-18.29967773 13.61016602 -18.29967773 13.61016602 -18.3125 14.8125 C-18.31701172 15.60978516 -18.32152344 16.40707031 -18.32617188 17.22851562 C-18.3379415 19.19404257 -18.35587652 21.15953085 -18.375 23.125 C-17.715 23.125 -17.055 23.125 -16.375 23.125 C-16.2925 22.073125 -16.21 21.02125 -16.125 19.9375 C-15.60346631 15.95812647 -14.72441663 12.12660534 -13.6875 8.25 C-13.39488281 7.13882812 -13.10226562 6.02765625 -12.80078125 4.8828125 C-11.375 2.125 -11.375 2.125 -8.56640625 0.75 C-5.60059492 0.16918015 -3.01341827 -0.08144374 0 0 Z " fill="#E5E6E5" transform="translate(546.375,453.875)"/>
<path d="M0 0 C0 4.95 0 9.9 0 15 C-1.86591797 15.29003906 -1.86591797 15.29003906 -3.76953125 15.5859375 C-5.4505727 15.84862662 -7.13155869 16.11167085 -8.8125 16.375 C-9.6794751 16.51075439 -10.5464502 16.64650879 -11.43969727 16.78637695 C-16.93622956 17.65414244 -22.41124238 18.59002057 -27.87109375 19.66796875 C-30 20 -30 20 -34 20 C-34 21.65 -34 23.3 -34 25 C-32.73027344 24.7834375 -31.46054687 24.566875 -30.15234375 24.34375 C-19.64830462 22.62071902 -9.64953728 21.56433711 1 22 C1.34077314 25.62433988 1.6712218 29.24955391 2 32.875 C2.09539063 33.88820313 2.19078125 34.90140625 2.2890625 35.9453125 C2.86095879 42.31787113 3.12770164 48.60250235 3 55 C-2.0098816 57.30520042 -6.8009695 58.85257338 -12.1875 60 C-12.95489502 60.16661133 -13.72229004 60.33322266 -14.51293945 60.50488281 C-20.54178667 61.77488064 -26.59802942 62.816904 -32.6875 63.75 C-33.92439575 63.94142578 -33.92439575 63.94142578 -35.1862793 64.13671875 C-35.97429932 64.25144531 -36.76231934 64.36617188 -37.57421875 64.484375 C-38.26088623 64.58459961 -38.94755371 64.68482422 -39.6550293 64.78808594 C-42.75817494 65.06851597 -45.88420895 65 -49 65 C-49 59.39 -49 53.78 -49 48 C-32.665 45.03 -32.665 45.03 -16 42 C-15.67 40.35 -15.34 38.7 -15 37 C-15.77601563 37.18175781 -16.55203125 37.36351562 -17.3515625 37.55078125 C-20.89900061 38.37625909 -24.4494021 39.18822581 -28 40 C-29.22074219 40.28617187 -30.44148437 40.57234375 -31.69921875 40.8671875 C-37.9349929 42.28287677 -43.60218223 43.38386907 -50 43 C-51.74485872 39.51028256 -51.68500705 35.53526669 -52.0625 31.6875 C-52.15192871 30.79063477 -52.24135742 29.89376953 -52.33349609 28.96972656 C-52.99468164 21.94478753 -53.18270645 15.05533497 -53 8 C-41.21688417 5.89000376 -29.46195849 3.79277973 -17.5703125 2.39453125 C-15.07348821 2.27070151 -15.07348821 2.27070151 -14 1 C-9.16965754 0.2631681 -4.93772248 0 0 0 Z " fill="#E4E5E5" transform="translate(614,443)"/>
<path d="M0 0 C-3.63253945 16.73115462 -7.54749895 33.51749684 -12.96484375 49.76953125 C-14.03619873 52.94852034 -14.03619873 52.94852034 -14.69140625 56.07421875 C-16.11094294 62.33267926 -16.11094294 62.33267926 -18.64453125 64.234375 C-23.48738558 66.25939496 -28.8084945 66.6139685 -34 67 C-33.37838833 58.93976871 -30.98402247 51.35416838 -28.75 43.625 C-28.33849569 42.18515302 -27.92760994 40.74512912 -27.51733398 39.30493164 C-26.71228406 36.48044867 -25.90475532 33.65669508 -25.09521484 30.83349609 C-23.72618225 26.04157684 -22.38772069 21.24168751 -21.0625 16.4375 C-19.73093439 11.6183364 -18.37924932 6.80572519 -17 2 C-11.23918159 0.7017874 -5.91260345 -0.25706972 0 0 Z " fill="#CEE7E8" transform="translate(471,467)"/>
<path d="M0 0 C-0.66 0.99 -1.32 1.98 -2 3 C-5.125 3.1875 -5.125 3.1875 -8 3 C-7.01 3.66 -6.02 4.32 -5 5 C-8.43787738 5.61705491 -11.83586179 6.0761311 -15.3125 6.375 C-19.37488197 6.79618341 -22.83573697 7.9162589 -26.65625 9.30859375 C-30.05015522 10.30979579 -33.41177716 10.5095284 -36.93359375 10.69140625 C-39.22000531 10.82339774 -39.22000531 10.82339774 -41 13 C-42.11375 12.9690625 -42.11375 12.9690625 -43.25 12.9375 C-46.11807109 12.80331476 -46.11807109 12.80331476 -48.8125 14.4375 C-52.68527405 16.33591865 -55.73068932 16.56583281 -60 17 C-60.33 17.33 -60.66 17.66 -61 18 C-63.1418285 18.30086882 -65.2888477 18.56502336 -67.4375 18.8125 C-73.0591036 19.56014474 -77.60280585 20.88276473 -82.74609375 23.1875 C-86.23197297 24.44410811 -89.32328513 24.12900754 -93 24 C-93.99 24.66 -94.98 25.32 -96 26 C-98.33157492 26.34541851 -100.66508361 26.67794257 -103 27 C-105.81862203 27.97549761 -105.81862203 27.97549761 -108 29 C-107.67 28.34 -107.34 27.68 -107 27 C-107.60328125 27.20496094 -108.2065625 27.40992188 -108.828125 27.62109375 C-109.62734375 27.89050781 -110.4265625 28.15992188 -111.25 28.4375 C-112.03890625 28.70433594 -112.8278125 28.97117187 -113.640625 29.24609375 C-116.49339068 30.15765629 -119.29641871 30.88273645 -122.25 31.375 C-125.20990924 31.95975655 -125.20990924 31.95975655 -128.625 33.5625 C-132.98659702 35.29224151 -136.88116423 35.06245974 -141.51171875 34.90234375 C-144.66824296 35.02622618 -146.46910605 36.18091998 -149 38 C-149.99 37.67 -150.98 37.34 -152 37 C-154.16715557 37.87483915 -154.16715557 37.87483915 -156 39 C-156 38.34 -156 37.68 -156 37 C-156.969375 37.86625 -157.93875 38.7325 -158.9375 39.625 C-161.30141107 41.34858486 -162.41065709 42.03701658 -165.36328125 41.8515625 C-166.91809716 41.45967764 -168.46109932 41.01628204 -169.984375 40.515625 C-172.18164287 39.75972675 -172.18164287 39.75972675 -175 41 C-175.78375 40.979375 -176.5675 40.95875 -177.375 40.9375 C-180.36289901 41.00864045 -182.2533384 41.86114031 -185 43 C-186.99760305 43.34740923 -188.99787771 43.67966043 -191 44 C-193.35283482 44.6119268 -195.67070969 45.30121291 -198 46 C-197.72265625 44.1015625 -197.72265625 44.1015625 -197 42 C-191.80897367 39.63216343 -186.52970332 38.33783145 -181 37 C-180.05125 36.649375 -179.1025 36.29875 -178.125 35.9375 C-174.51645557 34.85493667 -171.1157178 34.57730329 -167.3671875 34.34375 C-164.99321562 34.13039766 -164.99321562 34.13039766 -163.0546875 32.99609375 C-159.63442986 31.33798406 -156.01364656 31.59348566 -152.265625 31.44140625 C-148.87381037 30.98294327 -146.22926936 29.99853908 -143.07519531 28.74194336 C-139.70886829 27.53838244 -136.27375576 27.03650709 -132.75 26.5 C-127.61795461 25.66963528 -122.64137258 24.70739212 -117.625 23.3125 C-112.02584957 21.82352925 -106.76322107 21.69368707 -101 22 C-101 21.34 -101 20.68 -101 20 C-98.94921875 19.77213542 -96.8984375 19.54427083 -94.84765625 19.31640625 C-92.98859771 19.18113386 -92.98859771 19.18113386 -92 18 C-89.00258143 17.46037396 -85.99445673 17.03451931 -82.98046875 16.59765625 C-80.12174614 16.17286734 -80.12174614 16.17286734 -78.2421875 15.06396484 C-75.28009673 13.65839085 -72.34869824 13.07117891 -69.14453125 12.37890625 C-68.48345871 12.23347885 -67.82238617 12.08805145 -67.14128113 11.93821716 C-65.03275354 11.47459284 -62.92284664 11.01776742 -60.8125 10.5625 C-49.29656154 8.10923402 -49.29656154 8.10923402 -38.04223633 4.6809082 C-34.2458676 3.4151494 -30.35524801 2.60720333 -26.4375 1.8125 C-25.15117676 1.55098145 -25.15117676 1.55098145 -23.83886719 1.28417969 C-15.82272633 -0.23126537 -8.13835476 -0.40919102 0 0 Z " fill="#24292A" transform="translate(645,536)"/>
<path d="M0 0 C-1.07970904 8.11643346 -3.33018375 15.78213103 -5.79150391 23.56542969 C-7.32553872 28.479393 -8.50859401 33.33463963 -9.46386719 38.39135742 C-10.45126879 43.19572271 -11.80728095 47.90264799 -13.125 52.625 C-13.40214844 53.62917969 -13.67929687 54.63335938 -13.96484375 55.66796875 C-14.64010069 58.11286455 -15.31852821 60.55683066 -16 63 C-17.72807318 63.33895656 -19.45751974 63.67091525 -21.1875 64 C-22.15042969 64.185625 -23.11335938 64.37125 -24.10546875 64.5625 C-26.7934206 64.96877612 -29.28771019 65.07933572 -32 65 C-31.5727009 60.4706295 -30.86916608 56.26760475 -29.6328125 51.88671875 C-28.59094914 48.14294184 -27.57307563 44.3964958 -26.60546875 40.6328125 C-23.27477487 27.69291547 -19.73361903 14.82935051 -16 2 C-13.89627599 1.66388432 -11.79200343 1.33120054 -9.6875 1 C-8.51574219 0.814375 -7.34398437 0.62875 -6.13671875 0.4375 C-3 0 -3 0 0 0 Z " fill="#E1CBA5" transform="translate(507,461)"/>
<path d="M0 0 C-0.84855523 8.27947465 -3.44720123 16.16844208 -5.71508789 24.14794922 C-6.08536066 25.4565467 -6.4550662 26.76530481 -6.82421875 28.07421875 C-7.00914383 28.72942505 -7.19406891 29.38463135 -7.38459778 30.05969238 C-8.63420278 34.54232486 -9.73338975 39.04424154 -10.76953125 43.58203125 C-11.19274658 45.36130005 -11.19274658 45.36130005 -11.62451172 47.17651367 C-12.15607291 49.43125896 -12.65774378 51.69331518 -13.12548828 53.9621582 C-14.89747942 61.27466779 -14.89747942 61.27466779 -18.06665039 63.35961914 C-23.03366566 65.11861054 -27.77477963 65.28501202 -33 65 C-32.84144531 64.43796875 -32.68289063 63.8759375 -32.51953125 63.296875 C-31.21305507 58.5906735 -29.96073844 53.87533128 -28.79296875 49.1328125 C-28.57987061 48.26817383 -28.36677246 47.40353516 -28.1472168 46.51269531 C-27.72487849 44.7914795 -27.30562595 43.06950274 -26.88989258 41.34667969 C-25.89899784 37.30996611 -24.82257668 33.35826899 -23.47265625 29.42578125 C-21.9919023 25.10952086 -20.92194133 20.76476757 -19.9375 16.3125 C-18.85093552 11.43823285 -17.67149722 6.71733661 -16 2 C-14.08404518 1.66259915 -12.16720278 1.33023588 -10.25 1 C-9.18265625 0.814375 -8.1153125 0.62875 -7.015625 0.4375 C-4 0 -4 0 0 0 Z " fill="#7BE6E2" transform="translate(489,464)"/>
<path d="M0 0 C2.41385269 0.56796534 3.79339233 0.24944532 6.125 -0.5 C6.62 0.49 6.62 0.49 7.125 1.5 C8.4553125 0.9740625 8.4553125 0.9740625 9.8125 0.4375 C13.18703126 -0.51755602 14.82186152 -0.47151132 18.125 0.5 C16.05097417 3.61103875 15.48459756 4.25443492 12.125 5.5 C9.88366742 5.78693388 7.6305681 5.98966591 5.375 6.125 C4.20453125 6.19976562 3.0340625 6.27453125 1.828125 6.3515625 C0.93609375 6.40054687 0.0440625 6.44953125 -0.875 6.5 C-1.535 9.47 -2.195 12.44 -2.875 15.5 C-3.80038169 11.79847322 -3.95674162 10.86541838 -2.875 7.5 C-3.97908203 7.7165625 -3.97908203 7.7165625 -5.10546875 7.9375 C-6.08128906 8.123125 -7.05710937 8.30875 -8.0625 8.5 C-9.50689453 8.7784375 -9.50689453 8.7784375 -10.98046875 9.0625 C-13.67368625 9.46957201 -16.15887682 9.53202503 -18.875 9.5 C-19.02630371 10.44963623 -19.02630371 10.44963623 -19.18066406 11.41845703 C-20.50331421 19.22377778 -22.47475993 26.76102685 -24.625 34.375 C-24.97699463 35.63481689 -25.32898926 36.89463379 -25.69165039 38.19262695 C-26.74723738 41.96333191 -27.8102582 45.73187123 -28.875 49.5 C-29.18614746 50.60682129 -29.49729492 51.71364258 -29.81787109 52.85400391 C-30.64611935 55.79944742 -31.47799799 58.74382282 -32.3125 61.6875 C-32.5590332 62.55938965 -32.80556641 63.4312793 -33.05957031 64.32958984 C-34.75582133 70.26164267 -34.75582133 70.26164267 -35.875 72.5 C-33.24803769 72.05120234 -30.62383107 71.59145886 -28 71.125 C-27.25363281 70.99867188 -26.50726563 70.87234375 -25.73828125 70.7421875 C-21.36509468 70.04731306 -21.36509468 70.04731306 -17.875 67.5 C-17.3899664 72.83536958 -17.3899664 72.83536958 -19.42578125 75.625 C-22.59355281 78.05008828 -25.45477845 78.40731013 -29.3125 78.75 C-30.40195923 78.86384033 -30.40195923 78.86384033 -31.51342773 78.97998047 C-40.94301048 79.85424642 -50.41725862 79.66641187 -59.875 79.5 C-59.59348084 77.37363187 -59.29946737 75.24891472 -59 73.125 C-58.75636719 71.34996094 -58.75636719 71.34996094 -58.5078125 69.5390625 C-57.875 66.5 -57.875 66.5 -55.875 64.5 C-55.47735737 62.51178687 -55.13724651 60.51055661 -54.875 58.5 C-54.215 58.5 -53.555 58.5 -52.875 58.5 C-52.875 57.51 -52.875 56.52 -52.875 55.5 C-51.885 55.005 -51.885 55.005 -50.875 54.5 C-51.205 51.2 -51.535 47.9 -51.875 44.5 C-51.215 44.5 -50.555 44.5 -49.875 44.5 C-49.875 42.85 -49.875 41.2 -49.875 39.5 C-50.535 39.17 -51.195 38.84 -51.875 38.5 C-51.215 37.84 -50.555 37.18 -49.875 36.5 C-50.19541397 33.89719432 -50.19541397 33.89719432 -50.875 31.5 C-49.225 31.5 -47.575 31.5 -45.875 31.5 C-45.875 32.16 -45.875 32.82 -45.875 33.5 C-45.215 33.5 -44.555 33.5 -43.875 33.5 C-43.545 31.85 -43.215 30.2 -42.875 28.5 C-41.65757152 32.15228545 -42.22462981 33.39917242 -43.3515625 37.03125 C-43.69058594 38.14395264 -44.02960938 39.25665527 -44.37890625 40.40307617 C-44.74886719 41.59006104 -45.11882812 42.7770459 -45.5 44 C-46.24450228 46.44330628 -46.98667609 48.88732323 -47.7265625 51.33203125 C-48.09297852 52.54197754 -48.45939453 53.75192383 -48.83691406 54.99853516 C-51.04503507 62.44652938 -52.9673872 69.97043216 -54.875 77.5 C-54.15054687 77.29503906 -53.42609375 77.09007812 -52.6796875 76.87890625 C-51.71289062 76.60949219 -50.74609375 76.34007812 -49.75 76.0625 C-48.79867188 75.79566406 -47.84734375 75.52882813 -46.8671875 75.25390625 C-43.88223889 74.5018239 -40.91667044 73.96482501 -37.875 73.5 C-37.65585937 72.51644531 -37.43671875 71.53289062 -37.2109375 70.51953125 C-35.16679968 61.51165315 -32.82495409 52.63265458 -30.23901367 43.765625 C-27.93127934 35.81263832 -25.83610391 27.81093156 -23.79150391 19.78662109 C-23.5547998 18.86316895 -23.3180957 17.9397168 -23.07421875 16.98828125 C-22.86627686 16.16884033 -22.65833496 15.34939941 -22.4440918 14.50512695 C-21.875 12.5 -21.875 12.5 -20.875 10.5 C-21.59945312 10.644375 -22.32390625 10.78875 -23.0703125 10.9375 C-28.05991623 11.89550392 -32.76767738 12.77607149 -37.875 12.5 C-37.99617188 13.24765625 -38.11734375 13.9953125 -38.2421875 14.765625 C-38.40976562 15.75046875 -38.57734375 16.7353125 -38.75 17.75 C-38.99363281 19.21179688 -38.99363281 19.21179688 -39.2421875 20.703125 C-39.82355848 23.27264117 -40.58340265 25.22071056 -41.875 27.5 C-41.875 26.84 -41.875 26.18 -41.875 25.5 C-42.535 25.5 -43.195 25.5 -43.875 25.5 C-44.2290919 18.98208608 -43.91401852 14.32478551 -40.875 8.5 C-39.885 8.83 -38.895 9.16 -37.875 9.5 C-37.17375 9.190625 -36.4725 8.88125 -35.75 8.5625 C-32.3258489 7.29705285 -29.61713919 7.40675398 -26.0078125 7.49609375 C-23.52512121 7.5006408 -21.29934151 7.01038769 -18.875 6.5 C-16.54198014 6.46175377 -14.20788492 6.45425716 -11.875 6.5 C-11.875 5.18 -11.875 3.86 -11.875 2.5 C-8.83113276 2.41773332 -6.80324652 2.52391783 -3.875 3.5 C-3.875 2.51 -3.875 1.52 -3.875 0.5 C-1.875 -0.5 -1.875 -0.5 0 0 Z " fill="#1A344F" transform="translate(491.875,456.5)"/>
<path d="M0 0 C-0.99 0 -1.98 0 -3 0 C-3.33 1.32 -3.66 2.64 -4 4 C-2.4375 3.6875 -0.875 3.375 0.6875 3.0625 C3.40234375 2.51953125 6.1171875 1.9765625 8.83203125 1.43359375 C9.90517578 1.21896484 9.90517578 1.21896484 11 1 C8.09321641 3.45238984 5.92982173 4.45547774 2.1875 5.0625 C-1.97511129 5.79886837 -5.93756063 6.81819946 -10 8 C-14.9408739 9.2300502 -19.92193585 10.16757798 -24.93432617 11.05712891 C-32.17522773 12.27004233 -32.17522773 12.27004233 -39.125 14.5625 C-42.49145026 15.98648655 -45.68694504 16.42858529 -49.3125 16.875 C-56.17553643 17.74214391 -62.68319482 19.36972032 -69.33911133 21.23583984 C-75.18885536 22.86203782 -80.96195697 23.79986184 -87 24.4375 C-89.56809963 24.75116102 -91.73709482 25.2126235 -94.25 25.9375 C-98.60881328 27.1724971 -102.95133391 27.85584869 -107.42578125 28.53515625 C-109.97679834 28.87125176 -109.97679834 28.87125176 -112 30 C-114.6723621 30.13415472 -117.32250488 30.04318541 -120 30 C-119.67 29.34 -119.34 28.68 -119 28 C-116.55027908 27.35580318 -114.17256869 26.83063467 -111.6875 26.375 C-111.01009766 26.2409375 -110.33269531 26.106875 -109.63476562 25.96875 C-106.33686777 25.33689469 -103.37262326 25 -100 25 C-100 23.68 -100 22.36 -100 21 C-101.65 21 -103.3 21 -105 21 C-105 20.67 -105 20.34 -105 20 C-103.99646484 19.85304688 -103.99646484 19.85304688 -102.97265625 19.703125 C-96.6887645 18.72469353 -90.54624488 17.45230978 -84.375 15.9375 C-78.97005595 14.61313346 -73.75629742 13.53869055 -68.17578125 13.2734375 C-65.86338094 13.05559564 -65.86338094 13.05559564 -63.23046875 12.0703125 C-58.8717044 10.62617534 -54.43417737 9.91637244 -49.921875 9.14453125 C-45.78974853 8.41115766 -41.97038288 7.33435364 -38 6 C-36.15260412 5.68629127 -34.29714339 5.41774156 -32.4375 5.1875 C-25.2150685 4.16766592 -18.21464944 2.42718297 -11.15991211 0.58862305 C-9.85679077 0.26051636 -9.85679077 0.26051636 -8.52734375 -0.07421875 C-7.36319946 -0.37718872 -7.36319946 -0.37718872 -6.17553711 -0.6862793 C-3.81101683 -1.02725209 -2.25495568 -0.73262814 0 0 Z " fill="#323435" transform="translate(596,530)"/>
<path d="M0 0 C1.98 0 3.96 0 6 0 C6.19335938 0.62648438 6.38671875 1.25296875 6.5859375 1.8984375 C6.84632813 2.71570313 7.10671875 3.53296875 7.375 4.375 C7.63023437 5.18710937 7.88546875 5.99921875 8.1484375 6.8359375 C8.89854283 9.16459185 8.89854283 9.16459185 11 11 C11.99 8.36 12.98 5.72 14 3 C14.33 3 14.66 3 15 3 C15.42859918 6.9508637 15.85581346 10.90187442 16.28173828 14.85302734 C16.42686403 16.19746968 16.57236984 17.54187105 16.71826172 18.88623047 C16.9277551 20.81727488 17.13577371 22.74847911 17.34375 24.6796875 C17.46943359 25.84226074 17.59511719 27.00483398 17.72460938 28.20263672 C18 31 18 31 18 33 C19.62606623 32.69511258 21.25212844 32.39020365 22.87817383 32.08520508 C24.30502828 31.81776222 25.73195007 31.55067839 27.15893555 31.28393555 C30.94744252 30.57522526 34.73463576 29.86058181 38.51953125 29.1328125 C39.23947266 28.99528564 39.95941406 28.85775879 40.70117188 28.71606445 C42.08701034 28.45117188 43.47244408 28.18415128 44.85742188 27.91479492 C47.62878482 27.38720272 50.17029032 27 53 27 C53 28.65 53 30.3 53 32 C47.34725651 33.70968536 41.6647525 34.97047033 35.875 36.125 C34.99457031 36.30675781 34.11414063 36.48851562 33.20703125 36.67578125 C32.35238281 36.84722656 31.49773438 37.01867187 30.6171875 37.1953125 C29.85003418 37.35016113 29.08288086 37.50500977 28.29248047 37.66455078 C25.83222536 38.02454977 23.48298162 38.05646878 21 38 C21 37.34 21 36.68 21 36 C19.35 36.66 17.7 37.32 16 38 C15.505 36.515 15.505 36.515 15 35 C11.88214887 35.64644661 11.88214887 35.64644661 11 38 C10.84932786 39.4465242 10.75138964 40.8987934 10.68359375 42.3515625 C10.64169922 43.20234375 10.59980469 44.053125 10.55664062 44.9296875 C10.51732422 45.81914062 10.47800781 46.70859375 10.4375 47.625 C10.39431641 48.5221875 10.35113281 49.419375 10.30664062 50.34375 C10.20043139 52.56234283 10.09838806 54.7810488 10 57 C9.67 57 9.34 57 9 57 C8.96261719 55.75992188 8.92523437 54.51984375 8.88671875 53.2421875 C8.4319286 40.40206874 7.37135662 27.67653098 6.01635742 14.90576172 C5.88592041 13.67615723 5.7554834 12.44655273 5.62109375 11.1796875 C5.5017749 10.08382324 5.38245605 8.98795898 5.25952148 7.85888672 C5 5 5 5 5 1 C3.35 1 1.7 1 0 1 C0 0.67 0 0.34 0 0 Z " fill="#484C4C" transform="translate(546,453)"/>
<path d="M0 0 C-3.67545909 2.35229382 -6.72774326 2 -11 2 C-13.34904126 2.6090107 -15.68234271 3.28072705 -18 4 C-22.29934739 5.06336172 -26.5411573 5.94173426 -30.9375 6.5 C-34.09954692 6.7102606 -34.09954692 6.7102606 -36 9 C-37.11375 8.9690625 -37.11375 8.9690625 -38.25 8.9375 C-41.11807109 8.80331476 -41.11807109 8.80331476 -43.8125 10.4375 C-47.68527405 12.33591865 -50.73068932 12.56583281 -55 13 C-55.33 13.33 -55.66 13.66 -56 14 C-58.1418285 14.30086882 -60.2888477 14.56502336 -62.4375 14.8125 C-68.0591036 15.56014474 -72.60280585 16.88276473 -77.74609375 19.1875 C-81.23197297 20.44410811 -84.32328513 20.12900754 -88 20 C-88.99 20.66 -89.98 21.32 -91 22 C-93.33157492 22.34541851 -95.66508361 22.67794257 -98 23 C-100.81862203 23.97549761 -100.81862203 23.97549761 -103 25 C-102.67 24.34 -102.34 23.68 -102 23 C-102.60328125 23.20496094 -103.2065625 23.40992188 -103.828125 23.62109375 C-104.62734375 23.89050781 -105.4265625 24.15992188 -106.25 24.4375 C-107.03890625 24.70433594 -107.8278125 24.97117187 -108.640625 25.24609375 C-111.49339068 26.15765629 -114.29641871 26.88273645 -117.25 27.375 C-120.20990924 27.95975655 -120.20990924 27.95975655 -123.625 29.5625 C-127.98659702 31.29224151 -131.88116423 31.06245974 -136.51171875 30.90234375 C-139.66824296 31.02622618 -141.46910605 32.18091998 -144 34 C-145.485 33.505 -145.485 33.505 -147 33 C-149.16715557 33.87483915 -149.16715557 33.87483915 -151 35 C-151 34.34 -151 33.68 -151 33 C-151.43570312 33.38414062 -151.87140625 33.76828125 -152.3203125 34.1640625 C-154.17032482 35.66169152 -155.86925638 36.9325017 -158 38 C-161.4375 37.3125 -161.4375 37.3125 -164 36 C-160.25 34 -160.25 34 -158 34 C-158 33.34 -158 32.68 -158 32 C-156.02 32 -154.04 32 -152 32 C-152 31.34 -152 30.68 -152 30 C-114.7680427 21.21622436 -114.7680427 21.21622436 -97.64282227 19.73339844 C-92.57643681 19.27306586 -87.9230117 18.27849765 -83 17 C-82.01 17 -81.02 17 -80 17 C-80 16.34 -80 15.68 -80 15 C-76.75073335 14.49515526 -73.50047901 13.99697406 -70.25 13.5 C-69.32960938 13.35691406 -68.40921875 13.21382812 -67.4609375 13.06640625 C-66.12675781 12.86337891 -66.12675781 12.86337891 -64.765625 12.65625 C-63.94868164 12.53056641 -63.13173828 12.40488281 -62.29003906 12.27539062 C-60 12 -60 12 -56 12 C-56 11.34 -56 10.68 -56 10 C-54.35 10 -52.7 10 -51 10 C-51 9.34 -51 8.68 -51 8 C-50.08476563 7.79503906 -49.16953125 7.59007812 -48.2265625 7.37890625 C-47.03804687 7.10949219 -45.84953125 6.84007812 -44.625 6.5625 C-43.44164062 6.29566406 -42.25828125 6.02882813 -41.0390625 5.75390625 C-38.10505419 5.14365305 -38.10505419 5.14365305 -36 4 C-33.96332373 3.67531248 -31.92022703 3.3905534 -29.875 3.125 C-25.79571695 2.57408652 -21.76212066 1.97893777 -17.7265625 1.16796875 C-16.66912842 0.95599854 -16.66912842 0.95599854 -15.59033203 0.73974609 C-13.58976608 0.33084742 -11.59168537 -0.09015439 -9.59375 -0.51171875 C-6.06133518 -0.99166642 -3.45292599 -0.79395983 0 0 Z " fill="#4E5458" transform="translate(640,540)"/>
<path d="M0 0 C1.32 0.66 2.64 1.32 4 2 C3.44827239 6.59773012 2.49610898 10.63092814 1 15 C-1.66121222 23.63216738 -3.82044915 32.3017466 -5.69287109 41.13378906 C-6.90426098 46.80852197 -6.90426098 46.80852197 -8 49 C-8.66 49 -9.32 49 -10 49 C-10.66 54.28 -11.32 59.56 -12 65 C-12.66 65 -13.32 65 -14 65 C-15.3008283 70.93581845 -16.25186338 76.69819726 -16.55859375 82.7734375 C-17.09405681 85.47444584 -18.22717752 86.92934334 -20 89 C-19.67 86.69 -19.34 84.38 -19 82 C-20.79553415 84.69330122 -21.42696461 86.1460601 -22.125 89.1875 C-22.41375 90.445625 -22.7025 91.70375 -23 93 C-23.33 93 -23.66 93 -24 93 C-24.08159574 88.83861737 -23.98248524 85.0527516 -23 81 C-22.34 81 -21.68 81 -21 81 C-20.93941406 80.22914063 -20.87882812 79.45828125 -20.81640625 78.6640625 C-20.73261719 77.66117187 -20.64882813 76.65828125 -20.5625 75.625 C-20.48128906 74.62726563 -20.40007812 73.62953125 -20.31640625 72.6015625 C-20 70 -20 70 -19 68 C-18.34 68 -17.68 68 -17 68 C-17.061875 66.1128125 -17.061875 66.1128125 -17.125 64.1875 C-17.13444039 58.24005275 -16.69325125 51.3865025 -14 46 C-13.34 46 -12.68 46 -12 46 C-12.061875 44.80375 -12.12375 43.6075 -12.1875 42.375 C-12.34457734 39.33817137 -11.9766414 37.95429839 -10.5625 35.1875 C-8.80186668 31.59580803 -8.2979761 28.5834974 -7.8125 24.625 C-7.57466797 22.75714844 -7.57466797 22.75714844 -7.33203125 20.8515625 C-7.16767578 19.44003906 -7.16767578 19.44003906 -7 18 C-6.01 17.67 -5.02 17.34 -4 17 C-3.67 14.36 -3.34 11.72 -3 9 C-2.34 9 -1.68 9 -1 9 C-0.67 6.03 -0.34 3.06 0 0 Z " fill="#2C2C31" transform="translate(369,407)"/>
<path d="M0 0 C0.12375 0.928125 0.12375 0.928125 0.25 1.875 C0.8125 4.14583333 0.8125 4.14583333 2.875 5.25 C5.09591691 6.16641006 5.09591691 6.16641006 8 6 C8.09765625 12.15234375 8.09765625 12.15234375 8 14 C7.67 14.33 7.34 14.66 7 15 C6.21380686 20.36342496 6.21380686 20.36342496 5.54492188 25.7421875 C5.21405196 27.97603758 4.85696621 29.90908081 4 32 C0.00344111 34.77345093 -3.16375822 35.54957293 -8 35 C-8.66 34.34 -9.32 33.68 -10 33 C-9.45872612 29.92150482 -8.79905593 27.01366164 -8 24 C-7.76796875 23.08750488 -7.5359375 22.17500977 -7.296875 21.23486328 C-6.55202306 18.33816182 -5.77928894 15.45011271 -5 12.5625 C-4.73960937 11.57056641 -4.47921875 10.57863281 -4.2109375 9.55664062 C-3.95570313 8.61111328 -3.70046875 7.66558594 -3.4375 6.69140625 C-3.20933594 5.83748291 -2.98117187 4.98355957 -2.74609375 4.10375977 C-2 2 -2 2 0 0 Z " fill="#73E5E2" transform="translate(468,490)"/>
<path d="M0 0 C-0.30871122 1.79232337 -0.62209064 3.58384321 -0.9375 5.375 C-1.19853516 6.87160156 -1.19853516 6.87160156 -1.46484375 8.3984375 C-2 11 -2 11 -3 13 C-3.66 13 -4.32 13 -5 13 C-5.33 14.32 -5.66 15.64 -6 17 C-6.66 15.68 -7.32 14.36 -8 13 C-8.66 13 -9.32 13 -10 13 C-10.0928125 14.175625 -10.0928125 14.175625 -10.1875 15.375 C-10.455625 16.24125 -10.72375 17.1075 -11 18 C-13.4375 19.125 -13.4375 19.125 -16 20 C-18.09721004 22.7279852 -18.09721004 22.7279852 -18.4375 25.25 C-19 28 -19 28 -20.375 30.9375 C-21.99906456 34.52463288 -22.7236885 38.14704346 -23.5 42 C-24.53366203 47.09832261 -25.79670351 51.31799496 -28 56 C-29.05671604 58.98196582 -30.03657351 61.98672991 -31 65 C-32.42538341 61.17102888 -31.5501119 58.5401914 -30.4375 54.6875 C-30.0573358 53.34019807 -29.67851833 51.99251568 -29.30078125 50.64453125 C-29.09146973 49.90541504 -28.8821582 49.16629883 -28.66650391 48.40478516 C-27.68900955 44.87792823 -26.78439177 41.33318721 -25.8737793 37.78857422 C-22.79196006 25.79691108 -19.45956916 13.88766848 -16 2 C-13.89627599 1.66388432 -11.79200343 1.33120054 -9.6875 1 C-8.51574219 0.814375 -7.34398437 0.62875 -6.13671875 0.4375 C-3 0 -3 0 0 0 Z " fill="#E2D8AA" transform="translate(507,461)"/>
<path d="M0 0 C1.21742848 3.65228545 0.65037019 4.89917242 -0.4765625 8.53125 C-0.98509766 10.20030396 -0.98509766 10.20030396 -1.50390625 11.90307617 C-2.05884766 13.68355347 -2.05884766 13.68355347 -2.625 15.5 C-3.36950228 17.94330628 -4.11167609 20.38732323 -4.8515625 22.83203125 C-5.21797852 24.04197754 -5.58439453 25.25192383 -5.96191406 26.49853516 C-8.17003507 33.94652938 -10.0923872 41.47043216 -12 49 C-10.31970703 48.65775391 -10.31970703 48.65775391 -8.60546875 48.30859375 C-7.13289125 48.01783004 -5.66023058 47.72748736 -4.1875 47.4375 C-3.08051758 47.21030273 -3.08051758 47.21030273 -1.95117188 46.97851562 C3.66015625 45.88671875 3.66015625 45.88671875 7 47 C12.87388058 45.67951522 20.7217801 43.2782199 25 39 C25.4850336 44.33536958 25.4850336 44.33536958 23.44921875 47.125 C20.28144719 49.55008828 17.42022155 49.90731013 13.5625 50.25 C12.83619385 50.32589355 12.1098877 50.40178711 11.36157227 50.47998047 C1.93198952 51.35424642 -7.54225862 51.16641187 -17 51 C-16.71848084 48.87363187 -16.42446737 46.74891472 -16.125 44.625 C-15.96257812 43.44164062 -15.80015625 42.25828125 -15.6328125 41.0390625 C-15 38 -15 38 -13 36 C-12.60235737 34.01178687 -12.26224651 32.01055661 -12 30 C-11.34 30 -10.68 30 -10 30 C-10 29.01 -10 28.02 -10 27 C-9.34 26.67 -8.68 26.34 -8 26 C-8.33 22.7 -8.66 19.4 -9 16 C-8.34 16 -7.68 16 -7 16 C-7 14.35 -7 12.7 -7 11 C-7.66 10.67 -8.32 10.34 -9 10 C-8.34 9.34 -7.68 8.68 -7 8 C-7.32041397 5.39719432 -7.32041397 5.39719432 -8 3 C-6.35 3 -4.7 3 -3 3 C-3 3.66 -3 4.32 -3 5 C-2.34 5 -1.68 5 -1 5 C-0.67 3.35 -0.34 1.7 0 0 Z " fill="#1A2D4C" transform="translate(449,485)"/>
<path d="M0 0 C0.66 0.33 1.32 0.66 2 1 C-1.88005047 16.71528823 -6.01529958 32.3604013 -10.203125 47.99609375 C-10.82138829 50.32670388 -11.42469709 52.65851717 -12 55 C-11.43152344 54.855625 -10.86304688 54.71125 -10.27734375 54.5625 C-5.37737795 53.38454495 -1.0354688 52.78572473 4 53 C4.09152344 51.9275 4.18304688 50.855 4.27734375 49.75 C4.99986806 43.96980555 6.8124429 38.53780445 8.5625 33 C8.89185547 31.93910156 9.22121094 30.87820313 9.56054688 29.78515625 C10.36771779 27.18817156 11.18098869 24.59326993 12 22 C12.33 22 12.66 22 13 22 C12.37732601 28.13475399 11.12368596 33.86980938 9.5 39.8125 C9.27441406 40.65748047 9.04882812 41.50246094 8.81640625 42.37304688 C7.94635127 45.61387297 7.06144383 48.81566852 6 52 C11.445 51.505 11.445 51.505 17 51 C17 51.66 17 52.32 17 53 C18.65 53 20.3 53 22 53 C21.505 53.99 21.505 53.99 21 55 C16.63113288 56.19150921 14.04365799 56.021829 10 54 C10 54.66 10 55.32 10 56 C5.14673171 56.91818589 0.30900691 57.34248035 -4.609375 57.71875 C-7.01129427 57.86412861 -7.01129427 57.86412861 -9 59 C-11.125 58.5625 -11.125 58.5625 -13 58 C-14.98043849 50.73125549 -12.52065862 44.47687074 -10.4375 37.4375 C-10.06757614 36.15120914 -9.69909968 34.8645012 -9.33203125 33.57739258 C-8.58875631 30.97507525 -7.83934422 28.37465003 -7.08544922 25.77539062 C-5.50012914 20.26135787 -3.99703631 14.72602501 -2.5 9.1875 C-2.01069331 7.38924762 -1.52113998 5.59106231 -1.03125 3.79296875 C-0.6909375 2.54128906 -0.350625 1.28960937 0 0 Z " fill="#3B282D" transform="translate(487,471)"/>
<path d="M0 0 C0.99 0.33 1.98 0.66 3 1 C2.525625 1.391875 2.05125 1.78375 1.5625 2.1875 C-0.40753868 4.47274487 -0.58537145 6.02849538 -1 9 C-1.43086619 11.954511 -1.83303027 14.58498059 -2.94921875 17.359375 C-3.9894356 19.97345155 -4.6969797 22.52196539 -5.375 25.25 C-6.55359292 29.68460466 -8.06978711 33.70946109 -10.01953125 37.85546875 C-11.0184 40.04024541 -11.86576192 42.24322663 -12.6875 44.5 C-14 48 -14 48 -15 49 C-15.24655117 52.23255976 -15.38421091 55.46427492 -15.5234375 58.703125 C-16.03016436 62.20867801 -17.03718041 64.09910559 -19 67 C-19.69579454 69.19130534 -19.69579454 69.19130534 -20 71 C-20.66 70.67 -21.32 70.34 -22 70 C-22.05422947 68.5629191 -22.09289723 67.12524538 -22.125 65.6875 C-22.14820313 64.88699219 -22.17140625 64.08648437 -22.1953125 63.26171875 C-22 61 -22 61 -20 58 C-19.41702214 54.5237246 -19.04688807 51.04608315 -18.66015625 47.54296875 C-17.97469365 43.86418428 -16.77607693 41.27124374 -15 38 C-12.95997026 32.80472425 -11.5747145 27.51922153 -10.52734375 22.04296875 C-9.95586245 19.82900787 -9.0363754 18.03178734 -8 16 C-7.62875 14.4221875 -7.62875 14.4221875 -7.25 12.8125 C-5.95437685 7.92736351 -2.92034903 4.049918 0 0 Z " fill="#212129" transform="translate(384,424)"/>
<path d="M0 0 C-2.92770637 1.95180425 -4.13607877 2.35919062 -7.48046875 2.859375 C-8.38611572 3.0027832 -9.2917627 3.14619141 -10.22485352 3.29394531 C-11.20252686 3.44444336 -12.1802002 3.59494141 -13.1875 3.75 C-22.9823725 5.33569501 -32.52468364 7.48895082 -42.10424805 10.06933594 C-46.84416342 11.32320069 -51.04563607 12.36760879 -56 12 C-56 12.66 -56 13.32 -56 14 C-57.98 14 -59.96 14 -62 14 C-62 14.66 -62 15.32 -62 16 C-63.89385437 16.50744423 -65.79018666 17.00564574 -67.6875 17.5 C-68.74324219 17.7784375 -69.79898437 18.056875 -70.88671875 18.34375 C-73.72155458 18.94130636 -76.12304968 19.0447968 -79 19 C-80.67540664 19.64438717 -82.34183216 20.31246699 -84 21 C-85.99760305 21.34740923 -87.99787771 21.67966043 -90 22 C-92.35283482 22.6119268 -94.67070969 23.30121291 -97 24 C-96.72265625 22.1015625 -96.72265625 22.1015625 -96 20 C-90.80897367 17.63216343 -85.52970332 16.33783145 -80 15 C-79.05125 14.649375 -78.1025 14.29875 -77.125 13.9375 C-73.51645557 12.85493667 -70.1157178 12.57730329 -66.3671875 12.34375 C-63.99321562 12.13039766 -63.99321562 12.13039766 -62.0546875 10.99609375 C-58.63442986 9.33798406 -55.01364656 9.59348566 -51.265625 9.44140625 C-47.87381037 8.98294327 -45.22926936 7.99853908 -42.07519531 6.74194336 C-38.70886829 5.53838244 -35.27375576 5.03650709 -31.75 4.5 C-26.61795461 3.66963528 -21.64137258 2.70739212 -16.625 1.3125 C-11.02584957 -0.17647075 -5.76322107 -0.30631293 0 0 Z " fill="#26252D" transform="translate(544,558)"/>
<path d="M0 0 C0 0.66 0 1.32 0 2 C-3.31669195 4.36906568 -6.04921422 5.26497009 -10 6 C-11.19625 6.515625 -12.3925 7.03125 -13.625 7.5625 C-17.98659702 9.29224151 -21.88116423 9.06245974 -26.51171875 8.90234375 C-29.66824296 9.02622618 -31.46910605 10.18091998 -34 12 C-34.99 11.67 -35.98 11.34 -37 11 C-39.16715557 11.87483915 -39.16715557 11.87483915 -41 13 C-41 12.34 -41 11.68 -41 11 C-41.43570312 11.38414062 -41.87140625 11.76828125 -42.3203125 12.1640625 C-44.17032482 13.66169152 -45.86925638 14.9325017 -48 16 C-51.4375 15.3125 -51.4375 15.3125 -54 14 C-50.25 12 -50.25 12 -48 12 C-48 11.34 -48 10.68 -48 10 C-46.02 10 -44.04 10 -42 10 C-42 9.34 -42 8.68 -42 8 C-41.25427734 7.82871582 -40.50855469 7.65743164 -39.74023438 7.48095703 C-36.32664173 6.69642402 -32.91331933 5.91072126 -29.5 5.125 C-28.32695312 4.85558594 -27.15390625 4.58617187 -25.9453125 4.30859375 C-18.67313247 2.63512287 -18.67313247 2.63512287 -11.4375 0.8125 C-7.39922987 -0.14200021 -4.11775883 -0.14706282 0 0 Z " fill="#3C3854" transform="translate(530,562)"/>
<path d="M0 0 C-0.99 0 -1.98 0 -3 0 C-3.33 1.32 -3.66 2.64 -4 4 C-2.4375 3.6875 -0.875 3.375 0.6875 3.0625 C3.40234375 2.51953125 6.1171875 1.9765625 8.83203125 1.43359375 C9.54746094 1.29050781 10.26289062 1.14742187 11 1 C8.09321641 3.45238984 5.92982173 4.45547774 2.1875 5.0625 C-1.97511129 5.79886837 -5.93756063 6.81819946 -10 8 C-14.94089996 9.23005669 -19.9220204 10.16724959 -24.93432617 11.05737305 C-32.18649082 12.26960863 -32.18649082 12.26960863 -39.125 14.625 C-44.6890932 17.02939322 -51.0318424 16.75691493 -57 17 C-52.16353702 13.77569134 -49.73060016 13.90757097 -44 14 C-44 13.34 -44 12.68 -44 12 C-33.36998463 9.87965119 -22.77091097 8.21745669 -12 7 C-12 6.34 -12 5.68 -12 5 C-11.34 5 -10.68 5 -10 5 C-10 4.34 -10 3.68 -10 3 C-10.66 2.34 -11.32 1.68 -12 1 C-3.96428571 -1.27678571 -3.96428571 -1.27678571 0 0 Z " fill="#2A2C2C" transform="translate(596,530)"/>
<path d="M0 0 C0.66 0 1.32 0 2 0 C1.61908203 1.50626953 1.61908203 1.50626953 1.23046875 3.04296875 C-0.38955713 9.47400456 -1.99519611 15.9012107 -3.4375 22.375 C-10.36900685 52.7380137 -10.36900685 52.7380137 -15 62 C-9.06 61.505 -9.06 61.505 -3 61 C-7.5 65.5 -7.5 65.5 -11.75 65.75 C-12.54921875 65.80671875 -13.3484375 65.8634375 -14.171875 65.921875 C-14.77515625 65.94765625 -15.3784375 65.9734375 -16 66 C-16 65.34 -16 64.68 -16 64 C-19.465 64.495 -19.465 64.495 -23 65 C-20 63 -20 63 -17 63 C-16.78085937 62.01644531 -16.56171875 61.03289063 -16.3359375 60.01953125 C-14.29179968 51.01165315 -11.94995409 42.13265458 -9.36401367 33.265625 C-7.05627934 25.31263832 -4.96110391 17.31093156 -2.91650391 9.28662109 C-2.6797998 8.36316895 -2.4430957 7.4397168 -2.19921875 6.48828125 C-1.99127686 5.66884033 -1.78333496 4.84939941 -1.5690918 4.00512695 C-1 2 -1 2 0 0 Z " fill="#2A787E" transform="translate(471,467)"/>
<path d="M0 0 C0.66 0 1.32 0 2 0 C2.05406122 1.93719378 2.09282025 3.87481921 2.125 5.8125 C2.14820313 6.89144531 2.17140625 7.97039062 2.1953125 9.08203125 C2 12 2 12 0 15 C-0.2165625 16.11375 -0.2165625 16.11375 -0.4375 17.25 C-1 20 -1 20 -2.375 22.9375 C-3.99906456 26.52463288 -4.7236885 30.14704346 -5.5 34 C-6.53366203 39.09832261 -7.79670351 43.31799496 -10 48 C-11.05671604 50.98196582 -12.03657351 53.98672991 -13 57 C-14.42538341 53.17102888 -13.5501119 50.5401914 -12.4375 46.6875 C-12.06000245 45.34799258 -11.68378688 44.00812346 -11.30859375 42.66796875 C-11.09960449 41.92981934 -10.89061523 41.19166992 -10.67529297 40.43115234 C-9.38987091 35.80344703 -8.20329462 31.14959432 -7 26.5 C-4.69982569 17.6576396 -2.36978431 8.82396159 0 0 Z " fill="#CED4BF" transform="translate(489,469)"/>
<path d="M0 0 C0 0.66 0 1.32 0 2 C2.97 2.495 2.97 2.495 6 3 C6 3.33 6 3.66 6 4 C-17.78877436 6.18137854 -17.78877436 6.18137854 -28 7 C-28 5.35 -28 3.7 -28 2 C-18.24973215 -0.38699503 -10.05273557 -1.40704393 0 0 Z " fill="#565A59" transform="translate(608,461)"/>
<path d="M0 0 C2.41385269 0.56796534 3.79339233 0.24944532 6.125 -0.5 C6.455 0.16 6.785 0.82 7.125 1.5 C8.011875 1.149375 8.89875 0.79875 9.8125 0.4375 C13.18703126 -0.51755602 14.82186152 -0.47151132 18.125 0.5 C16.0257335 3.64889975 15.52790778 4.24629714 12.125 5.5 C4.22999165 7.01827084 -3.86811479 6.58745384 -11.875 6.5 C-11.875 5.18 -11.875 3.86 -11.875 2.5 C-8.83113276 2.41773332 -6.80324652 2.52391783 -3.875 3.5 C-3.875 2.51 -3.875 1.52 -3.875 0.5 C-1.875 -0.5 -1.875 -0.5 0 0 Z " fill="#3B292B" transform="translate(491.875,456.5)"/>
<path d="M0 0 C0 0.66 0 1.32 0 2 C-1.65 2 -3.3 2 -5 2 C-5 2.66 -5 3.32 -5 4 C-7.49840454 4.50938345 -9.99823388 5.00763114 -12.5 5.5 C-13.19609375 5.64308594 -13.8921875 5.78617188 -14.609375 5.93359375 C-19.49087203 6.88277373 -24.02718299 7.13440046 -29 7 C-29 7.66 -29 8.32 -29 9 C-31.68533564 9.67662 -34.372725 10.34146121 -37.0625 11 C-37.81466797 11.19078125 -38.56683594 11.3815625 -39.34179688 11.578125 C-44.02773336 12.7141096 -48.17932546 13.20486266 -53 13 C-53 12.67 -53 12.34 -53 12 C-50.36 11.67 -47.72 11.34 -45 11 C-45 10.01 -45 9.02 -45 8 C-42.94921875 7.77213542 -40.8984375 7.54427083 -38.84765625 7.31640625 C-36.98859771 7.18113386 -36.98859771 7.18113386 -36 6 C-34.56078867 5.73907179 -33.11153669 5.53296703 -31.66015625 5.3515625 C-30.76103516 5.23296875 -29.86191406 5.114375 -28.93554688 4.9921875 C-27.05575312 4.75194193 -25.17555477 4.51483602 -23.29492188 4.28125 C-17.73437373 3.54141769 -12.59834399 2.41794564 -7.28686523 0.59912109 C-4.77602676 -0.05867731 -2.58454087 -0.10216028 0 0 Z " fill="#404348" transform="translate(589,548)"/>
<path d="M0 0 C1.25605636 3.76816907 0.54361203 5.25769854 -0.6171875 9.0234375 C-0.97683594 10.209375 -1.33648437 11.3953125 -1.70703125 12.6171875 C-2.28517578 14.47730469 -2.28517578 14.47730469 -2.875 16.375 C-3.62427609 18.81973702 -4.37174267 21.26502954 -5.1171875 23.7109375 C-5.45347168 24.79681152 -5.78975586 25.88268555 -6.13623047 27.00146484 C-6.90195473 29.65964047 -7.50642295 32.2799681 -8 35 C-9.485 35.495 -9.485 35.495 -11 36 C-12 35 -12 35 -12.0625 32.4375 C-12.041875 31.633125 -12.02125 30.82875 -12 30 C-11.34 30 -10.68 30 -10 30 C-10 29.01 -10 28.02 -10 27 C-9.34 26.67 -8.68 26.34 -8 26 C-8.33 22.7 -8.66 19.4 -9 16 C-8.34 16 -7.68 16 -7 16 C-7 14.35 -7 12.7 -7 11 C-7.66 10.67 -8.32 10.34 -9 10 C-8.34 9.34 -7.68 8.68 -7 8 C-7.32041397 5.39719432 -7.32041397 5.39719432 -8 3 C-6.35 3 -4.7 3 -3 3 C-3 3.66 -3 4.32 -3 5 C-2.34 5 -1.68 5 -1 5 C-0.67 3.35 -0.34 1.7 0 0 Z " fill="#1F2F4B" transform="translate(449,485)"/>
<path d="M0 0 C0 0.66 0 1.32 0 2 C-1.5823006 2.33820166 -3.16589375 2.67035939 -4.75 3 C-5.63171875 3.185625 -6.5134375 3.37125 -7.421875 3.5625 C-10 4 -10 4 -14 4 C-14.23074219 5.09054687 -14.46148437 6.18109375 -14.69921875 7.3046875 C-17.06982661 18.32727479 -19.87588222 29.16801785 -23 40 C-23.99 40 -24.98 40 -26 40 C-25.36595286 35.8597495 -24.50217961 31.87374191 -23.40625 27.83203125 C-23.09816406 26.69185547 -22.79007812 25.55167969 -22.47265625 24.37695312 C-22.15167969 23.20068359 -21.83070313 22.02441406 -21.5 20.8125 C-21.17902344 19.62462891 -20.85804688 18.43675781 -20.52734375 17.21289062 C-18.15788849 8.47366546 -18.15788849 8.47366546 -17 5 C-17.66 4.67 -18.32 4.34 -19 4 C-15.535 3.505 -15.535 3.505 -12 3 C-12 2.01 -12 1.02 -12 0 C-11.360625 0.185625 -10.72125 0.37125 -10.0625 0.5625 C-9.381875 0.706875 -8.70125 0.85125 -8 1 C-7.67 0.67 -7.34 0.34 -7 0 C-3.9948905 -1.00170317 -3.13649725 -1.04549908 0 0 Z " fill="#5C5959" transform="translate(524,456)"/>
<path d="M0 0 C0 0.66 0 1.32 0 2 C0.763125 1.814375 1.52625 1.62875 2.3125 1.4375 C5 1 5 1 8 2 C10.33299825 2.03954234 12.66708189 2.04401732 15 2 C15 2.33 15 2.66 15 3 C13.60974609 3.19916016 13.60974609 3.19916016 12.19140625 3.40234375 C10.99386719 3.57894531 9.79632812 3.75554687 8.5625 3.9375 C7.36753906 4.11152344 6.17257812 4.28554688 4.94140625 4.46484375 C2.12044324 4.68985213 2.12044324 4.68985213 1 6 C-2.74521209 6.70140762 -6.53467155 7.13372309 -10.3125 7.625 C-11.90094727 7.84542969 -11.90094727 7.84542969 -13.52148438 8.0703125 C-15.05192383 8.27140625 -15.05192383 8.27140625 -16.61328125 8.4765625 C-17.54954346 8.60111816 -18.48580566 8.72567383 -19.45043945 8.85400391 C-21.9101817 8.99485671 -23.6693073 8.74645112 -26 8 C-25.01 7.67 -24.02 7.34 -23 7 C-22.67 6.34 -22.34 5.68 -22 5 C-18.9375 4.375 -18.9375 4.375 -16 4 C-16 3.34 -16 2.68 -16 2 C-15.34 2 -14.68 2 -14 2 C-14 2.66 -14 3.32 -14 4 C-11.36 3.67 -8.72 3.34 -6 3 C-6 2.34 -6 1.68 -6 1 C-3.92446352 0.4465236 -2.15634036 0 0 0 Z " fill="#454947" transform="translate(598,440)"/>
<path d="M0 0 C1.98 0 3.96 0 6 0 C6.99 2.97 7.98 5.94 9 9 C9.33 9 9.66 9 10 9 C10.02694851 10.95825873 10.04637218 12.91662226 10.0625 14.875 C10.07410156 15.96554687 10.08570313 17.05609375 10.09765625 18.1796875 C10 21 10 21 9 23 C9.66 23.66 10.32 24.32 11 25 C12.01852314 35.4787042 10.62016272 46.51260543 10 57 C9.67 57 9.34 57 9 57 C8.96261719 55.75992188 8.92523437 54.51984375 8.88671875 53.2421875 C8.4319286 40.40206874 7.37135662 27.67653098 6.01635742 14.90576172 C5.88592041 13.67615723 5.7554834 12.44655273 5.62109375 11.1796875 C5.5017749 10.08382324 5.38245605 8.98795898 5.25952148 7.85888672 C5 5 5 5 5 1 C3.35 1 1.7 1 0 1 C0 0.67 0 0.34 0 0 Z " fill="#6D7172" transform="translate(546,453)"/>
<path d="M0 0 C2.31 0 4.62 0 7 0 C7.144375 0.7425 7.28875 1.485 7.4375 2.25 C7.91807263 4.87890593 7.91807263 4.87890593 8.625 6.875 C9.17653468 10.00036318 8.45415873 12.8776587 8 16 C8.33 16.99 8.66 17.98 9 19 C9 19.99 9 20.98 9 22 C9.66 22.99 10.32 23.98 11 25 C11.07905064 27.33199388 11.08798769 29.66832622 11 32 C10.67 32 10.34 32 10 32 C9.67 29.69 9.34 27.38 9 25 C7.75283203 24.83564453 7.75283203 24.83564453 6.48046875 24.66796875 C4.85044922 24.43013672 4.85044922 24.43013672 3.1875 24.1875 C2.10855469 24.03667969 1.02960937 23.88585937 -0.08203125 23.73046875 C-3.06440991 22.98387597 -4.14223479 22.37924316 -6 20 C-1.52247755 18.29427716 0.98367082 18 6 18 C5.67 13.05 5.34 8.1 5 3 C2.03 2.505 2.03 2.505 -1 2 C-0.67 1.34 -0.34 0.68 0 0 Z " fill="#393C3C" transform="translate(608,440)"/>
<path d="M0 0 C0.66 0.33 1.32 0.66 2 1 C-0.10764508 9.5365513 -2.25990619 18.05965745 -4.5 26.5625 C-4.70866699 27.35648193 -4.91733398 28.15046387 -5.13232422 28.96850586 C-6.13550465 32.77304236 -7.15365004 36.57231867 -8.20703125 40.36328125 C-8.39394531 41.04253662 -8.58085937 41.72179199 -8.7734375 42.42163086 C-9.27761845 44.24860176 -9.78893628 46.07359892 -10.30078125 47.8984375 C-10.93932416 50.73085688 -11.14597982 53.11284363 -11 56 C-11.66 56 -12.32 56 -13 56 C-14.1647048 51.81294167 -13.75411426 49.09019069 -12.55859375 44.94140625 C-12.22472656 43.76022217 -11.89085937 42.57903809 -11.546875 41.36206055 C-11.18078125 40.10820557 -10.8146875 38.85435059 -10.4375 37.5625 C-10.06784576 36.2670147 -9.69936524 34.97119394 -9.33203125 33.67504883 C-8.5875921 31.05128314 -7.83825193 28.42899472 -7.08544922 25.80761719 C-5.50975456 20.28028164 -4.00179819 14.73528093 -2.5 9.1875 C-2.01061487 7.38926896 -1.52105296 5.59108602 -1.03125 3.79296875 C-0.6909375 2.54128906 -0.350625 1.28960937 0 0 Z " fill="#476E6A" transform="translate(487,471)"/>
<path d="M0 0 C0.66 0 1.32 0 2 0 C4.8370133 5.55581771 5.30190024 10.42590059 5.3125 16.5625 C5.31765625 17.28236084 5.3228125 18.00222168 5.328125 18.74389648 C5.26720961 23.500192 4.48995812 27.48263693 3 32 C2.67 32 2.34 32 2 32 C-0.38776806 9.19872014 -0.38776806 9.19872014 0 0 Z " fill="#414244" transform="translate(615,465)"/>
<path d="M0 0 C0 1.65 0 3.3 0 5 C-5.95795479 6.98598493 -11.74892565 7.57045059 -18 8 C-18.33 7.34 -18.66 6.68 -19 6 C-21.01669827 4.86649466 -21.01669827 4.86649466 -23 4 C-19.73011701 3.32861379 -16.45894951 2.66370737 -13.1875 2 C-12.25873047 1.80921875 -11.32996094 1.6184375 -10.37304688 1.421875 C-9.48037109 1.24140625 -8.58769531 1.0609375 -7.66796875 0.875 C-6.84578857 0.70742188 -6.0236084 0.53984375 -5.17651367 0.3671875 C-3 0 -3 0 0 0 Z " fill="#575C5A" transform="translate(599,480)"/>
<path d="M0 0 C0.74056641 0.00451172 1.48113281 0.00902344 2.24414062 0.01367188 C4.05862899 0.02537825 5.87307534 0.04331102 7.6875 0.0625 C7.0275 1.0525 6.3675 2.0425 5.6875 3.0625 C2.75 3.1875 2.75 3.1875 -0.3125 3.0625 C-1.3025 3.3925 -2.2925 3.7225 -3.3125 4.0625 C-6.50654815 4.81749169 -9.72270407 5.46477703 -12.9375 6.125 C-14.23494141 6.4044043 -14.23494141 6.4044043 -15.55859375 6.68945312 C-21.2583555 7.85589612 -26.49528504 8.24539418 -32.3125 8.0625 C-29.06023785 5.89432523 -27.13070595 5.5568217 -23.3125 5 C-20.15559185 4.53188004 -17.34368526 4.07289509 -14.3125 3.0625 C-13.9825 2.4025 -13.6525 1.7425 -13.3125 1.0625 C-8.96312133 -0.25977764 -4.50126608 -0.05229353 0 0 Z " fill="#353B3A" transform="translate(637.3125,535.9375)"/>
<path d="M0 0 C0 0.66 0 1.32 0 2 C0.66 2.33 1.32 2.66 2 3 C1.22398437 3.09796875 0.44796875 3.1959375 -0.3515625 3.296875 C-6.5189065 4.15058849 -12.35178656 5.3077879 -18.3125 7.125 C-23.47135249 8.68130187 -27.63965452 9.42882764 -33 9 C-32 7 -32 7 -28.90234375 5.9296875 C-27.58379243 5.566805 -26.26191367 5.21586616 -24.9375 4.875 C-24.2580835 4.69614258 -23.57866699 4.51728516 -22.87866211 4.33300781 C-18.08191483 3.12909132 -13.90874319 2.59928627 -9 3 C-9 2.34 -9 1.68 -9 1 C-5.94152152 0.45627049 -3.11227195 0 0 0 Z " fill="#202224" transform="translate(569,532)"/>
<path d="M0 0 C3 1 3 1 5 4 C5.125 7.1875 5.125 7.1875 5 10 C4.34 9.34 3.68 8.68 3 8 C3 7.01 3 6.02 3 5 C2.28714844 5.144375 1.57429687 5.28875 0.83984375 5.4375 C-4.53773843 6.4797232 -9.52360792 7.2433952 -15 7 C-15 5.68 -15 4.36 -15 3 C-14.34 2.67 -13.68 2.34 -13 2 C-13 2.66 -13 3.32 -13 4 C-11.68 4 -10.36 4 -9 4 C-9 3.01 -9 2.02 -9 1 C-6.01002175 -0.49498913 -3.29957225 -0.11577446 0 0 Z " fill="#393E3F" transform="translate(549,448)"/>
<path d="M0 0 C-3.67545909 2.35229382 -6.72774326 2 -11 2 C-13.34904126 2.6090107 -15.68234271 3.28072705 -18 4 C-22.29934739 5.06336172 -26.5411573 5.94173426 -30.9375 6.5 C-34.09954692 6.7102606 -34.09954692 6.7102606 -36 9 C-38.58064129 9.14497985 -41.04943884 9.18677545 -43.625 9.125 C-44.33140625 9.11597656 -45.0378125 9.10695313 -45.765625 9.09765625 C-47.51056098 9.07407603 -49.25532295 9.03820461 -51 9 C-51 8.67 -51 8.34 -51 8 C-50.08476563 7.79503906 -49.16953125 7.59007812 -48.2265625 7.37890625 C-47.03804687 7.10949219 -45.84953125 6.84007812 -44.625 6.5625 C-43.44164062 6.29566406 -42.25828125 6.02882813 -41.0390625 5.75390625 C-38.10505419 5.14365305 -38.10505419 5.14365305 -36 4 C-33.96332373 3.67531248 -31.92022703 3.3905534 -29.875 3.125 C-25.79571695 2.57408652 -21.76212066 1.97893777 -17.7265625 1.16796875 C-16.66912842 0.95599854 -16.66912842 0.95599854 -15.59033203 0.73974609 C-13.58976608 0.33084742 -11.59168537 -0.09015439 -9.59375 -0.51171875 C-6.06133518 -0.99166642 -3.45292599 -0.79395983 0 0 Z " fill="#4A5354" transform="translate(640,540)"/>
<path d="M0 0 C0.66 0.33 1.32 0.66 2 1 C2 3.97 2 6.94 2 10 C3.32 9.67 4.64 9.34 6 9 C7.41534778 8.93543121 8.83337689 8.91388961 10.25 8.9375 C12.10625 8.9684375 12.10625 8.9684375 14 9 C13.67 9.99 13.34 10.98 13 12 C10.67328146 12.68939809 8.33932406 13.35466922 6 14 C4.09829946 15.47761659 4.09829946 15.47761659 3 17 C2.566875 16.505 2.13375 16.01 1.6875 15.5 C0.00259517 13.66781808 0.00259517 13.66781808 -3 14 C-2.67 12.35 -2.34 10.7 -2 9 C-1.34 9 -0.68 9 0 9 C0 6.03 0 3.06 0 0 Z " fill="#494D4D" transform="translate(539,503)"/>
<path d="M0 0 C3 1 3 1 4 3 C5.32 2.67 6.64 2.34 8 2 C8 2.66 8 3.32 8 4 C7.01 4.495 7.01 4.495 6 5 C5.53101037 7.8159849 5.53101037 7.8159849 5.375 11.0625 C5.30023437 12.16722656 5.22546875 13.27195312 5.1484375 14.41015625 C5.09945312 15.26480469 5.05046875 16.11945313 5 17 C3.02 17 1.04 17 -1 17 C-2.26237731 13.21286807 -1.67558873 10.74348067 -1.0625 6.8125 C-0.86785156 5.54019531 -0.67320312 4.26789063 -0.47265625 2.95703125 C-0.31667969 1.98121094 -0.16070313 1.00539063 0 0 Z " fill="#3F4848" transform="translate(559,487)"/>
<path d="M0 0 C0.66 0.66 1.32 1.32 2 2 C1.67 2.66 1.34 3.32 1 4 C-1.5625 4.625 -1.5625 4.625 -4 5 C-4.12117188 5.74765625 -4.24234375 6.4953125 -4.3671875 7.265625 C-4.53476562 8.25046875 -4.70234375 9.2353125 -4.875 10.25 C-5.03742188 11.22453125 -5.19984375 12.1990625 -5.3671875 13.203125 C-5.94855848 15.77264117 -6.70840265 17.72071056 -8 20 C-8 19.34 -8 18.68 -8 18 C-8.66 18 -9.32 18 -10 18 C-10.3540919 11.48208608 -10.03901852 6.82478551 -7 1 C-6.01 1.33 -5.02 1.66 -4 2 C-1.83284443 1.12516085 -1.83284443 1.12516085 0 0 Z " fill="#19243B" transform="translate(458,464)"/>
<path d="M0 0 C0.66 0 1.32 0 2 0 C2.20674944 5.78898419 1.59162079 10.42932723 0 16 C-0.66 16 -1.32 16 -2 16 C-2.02578125 16.91523437 -2.0515625 17.83046875 -2.078125 18.7734375 C-2.13484375 19.96195313 -2.1915625 21.15046875 -2.25 22.375 C-2.29640625 23.55835938 -2.3428125 24.74171875 -2.390625 25.9609375 C-3 29 -3 29 -5.046875 30.4140625 C-6.01367188 30.70410156 -6.01367188 30.70410156 -7 31 C-6.69989965 26.52953963 -6.31973293 22.40345965 -4.5625 18.25 C-2.60622862 13.5454059 -2.08730091 8.68455348 -1.4296875 3.66015625 C-1 1 -1 1 0 0 Z " fill="#333333" transform="translate(385,520)"/>
<path d="M0 0 C0 0.33 0 0.66 0 1 C-1.21816406 1.32613281 -2.43632812 1.65226563 -3.69140625 1.98828125 C-5.31517655 2.42942116 -6.93887044 2.87084239 -8.5625 3.3125 C-9.76229492 3.63250977 -9.76229492 3.63250977 -10.98632812 3.95898438 C-15.87573603 5.29608776 -20.36566732 6.95544147 -25 9 C-27.65339965 9.7964458 -30.29554658 10.38319483 -33 11 C-32.72265625 9.1015625 -32.72265625 9.1015625 -32 7 C-26.80897367 4.63216343 -21.52970332 3.33783145 -16 2 C-15.05125 1.62875 -14.1025 1.2575 -13.125 0.875 C-8.73768185 -0.35344908 -4.52616708 -0.1610099 0 0 Z " fill="#1F1F32" transform="translate(480,571)"/>
<path d="M0 0 C-0.59015185 5.50808397 -1.56663769 10.64878069 -3 16 C-0.36 16 2.28 16 5 16 C5 16.66 5 17.32 5 18 C0.71 18 -3.58 18 -8 18 C-6.52678571 4.74107143 -6.52678571 4.74107143 -3.4375 1.6875 C-1 0 -1 0 0 0 Z " fill="#192A3E" transform="translate(440,518)"/>
<path d="M0 0 C1.07543553 3.2186794 0.96187111 4.87196253 -0.36328125 7.9765625 C-0.67233398 8.72518555 -0.98138672 9.47380859 -1.29980469 10.24511719 C-1.63399414 11.03047852 -1.96818359 11.81583984 -2.3125 12.625 C-4.6796222 18.40077817 -6.63696834 23.81297445 -7.6015625 30.0078125 C-8.19159827 32.95799137 -9.5032225 35.41465705 -11 38 C-11.33 38 -11.66 38 -12 38 C-11.0457106 29.41139543 -10.07528874 21.48900393 -5.88671875 13.828125 C-4.6560236 11.2908328 -4.27874281 8.78742809 -4 6 C-3.34 6 -2.68 6 -2 6 C-1.34 4.02 -0.68 2.04 0 0 Z " fill="#31313D" transform="translate(394,418)"/>
<path d="M0 0 C0.66 0 1.32 0 2 0 C2.02694851 1.95825873 2.04637218 3.91662226 2.0625 5.875 C2.07410156 6.96554687 2.08570313 8.05609375 2.09765625 9.1796875 C2 12 2 12 1 14 C0.34 14 -0.32 14 -1 14 C-1.33 16.64 -1.66 19.28 -2 22 C-2.99 22 -3.98 22 -5 22 C-5.20074863 17.68390444 -4.65180015 14.94596702 -3 11 C-2.43612621 8.67148521 -1.94226644 6.3359383 -1.46484375 3.98828125 C-1 2 -1 2 0 0 Z " fill="#313036" transform="translate(360,442)"/>
<path d="M0 0 C0 0.66 0 1.32 0 2 C-3.76776408 4.88123135 -6.34490092 5.20239561 -11 5 C-11.99 5.33 -12.98 5.66 -14 6 C-16.39490986 6.06970052 -18.79167691 6.08448003 -21.1875 6.0625 C-22.45980469 6.05347656 -23.73210937 6.04445313 -25.04296875 6.03515625 C-26.50669922 6.01775391 -26.50669922 6.01775391 -28 6 C-24.30173705 3.88398357 -20.34907646 2.90357867 -16.25 1.875 C-15.23292969 1.60236328 -15.23292969 1.60236328 -14.1953125 1.32421875 C-9.34681693 0.09826835 -4.99916803 -0.16813345 0 0 Z " fill="#404047" transform="translate(530,562)"/>
<path d="M0 0 C-3.15831524 2.1055435 -5.20751799 2.34072197 -8.90625 2.72265625 C-11.22065457 2.97646717 -11.22065457 2.97646717 -14.25 3.9375 C-18.60881328 5.1724971 -22.95133391 5.85584869 -27.42578125 6.53515625 C-29.97679834 6.87125176 -29.97679834 6.87125176 -32 8 C-34.6723621 8.13415472 -37.32250488 8.04318541 -40 8 C-39.67 7.34 -39.34 6.68 -39 6 C-36.79245599 5.42944397 -34.5557695 4.97057678 -32.3125 4.5625 C-30.93986141 4.30860058 -29.5674702 4.05336059 -28.1953125 3.796875 C-27.49567383 3.66732422 -26.79603516 3.53777344 -26.07519531 3.40429688 C-22.92678074 2.79091164 -19.81116939 2.04021199 -16.6875 1.3125 C-11.03412613 0.07763335 -5.77014372 -0.35897207 0 0 Z " fill="#262628" transform="translate(516,552)"/>
<path d="M0 0 C0.66 0 1.32 0 2 0 C2.18309406 5.30972783 1.81180536 8.96720733 0 14 C-0.33368445 15.55811334 -0.64399553 17.12132069 -0.9375 18.6875 C-1.98877121 24.21298148 -3.45828525 29.59372029 -5 35 C-5.66 34.67 -6.32 34.34 -7 34 C-6.3823808 30.45700542 -5.75458995 26.91588534 -5.125 23.375 C-4.95097656 22.37597656 -4.77695312 21.37695312 -4.59765625 20.34765625 C-3.71345698 15.40268998 -2.7169216 10.73633544 -1 6 C-0.63079809 4.00630969 -0.28674418 2.00720923 0 0 Z " fill="#212131" transform="translate(377,469)"/>
<path d="M0 0 C0.66 0 1.32 0 2 0 C1.88638398 2.79256219 1.7596411 5.58344118 1.625 8.375 C1.5940625 9.1690625 1.563125 9.963125 1.53125 10.78125 C1.2265625 16.7734375 1.2265625 16.7734375 -1 19 C-1.66 19.99 -2.32 20.98 -3 22 C-3.66 21.67 -4.32 21.34 -5 21 C-4.3900874 16.01155691 -3.36525565 11.39844654 -1.9375 6.5625 C-1.57527344 5.32628906 -1.21304688 4.09007812 -0.83984375 2.81640625 C-0.56269531 1.88699219 -0.28554688 0.95757812 0 0 Z " fill="#545757" transform="translate(538,495)"/>
<path d="M0 0 C0.33 0 0.66 0 1 0 C0.3003757 6.98820138 -1.36618966 13.4526273 -3.27148438 20.19726562 C-4.37582196 24.21859987 -5.33488618 27.78386891 -5 32 C-8.2830098 33.6415049 -11.42545033 32.51888624 -15 32 C-15 31.67 -15 31.34 -15 31 C-12.69 31 -10.38 31 -8 31 C-7.90847656 29.9275 -7.81695312 28.855 -7.72265625 27.75 C-7.00013194 21.96980555 -5.1875571 16.53780445 -3.4375 11 C-3.10814453 9.93910156 -2.77878906 8.87820313 -2.43945312 7.78515625 C-1.63228221 5.18817156 -0.81901131 2.59326993 0 0 Z " fill="#594533" transform="translate(499,493)"/>
<path d="M0 0 C-1.0681847 5.11365014 -2.23107476 10.07227969 -4 15 C-6 12 -6 12 -5.7578125 9.95703125 C-5.171875 7.97135417 -4.5859375 5.98567708 -4 4 C-7.96 3.67 -11.92 3.34 -16 3 C-16.33 3.66 -16.66 4.32 -17 5 C-17 4.01 -17 3.02 -17 2 C-11.23918159 0.7017874 -5.91260345 -0.25706972 0 0 Z " fill="#B2DAE1" transform="translate(471,467)"/>
<path d="M0 0 C1.25127906 3.54667178 0.72285053 5.72253438 -0.4375 9.25 C-0.72496094 10.14203125 -1.01242187 11.0340625 -1.30859375 11.953125 C-1.53675781 12.62859375 -1.76492188 13.3040625 -2 14 C-4.64 14 -7.28 14 -10 14 C-10 13.01 -10 12.02 -10 11 C-8.02 11.495 -8.02 11.495 -6 12 C-6 9.36 -6 6.72 -6 4 C-5.38125 3.896875 -4.7625 3.79375 -4.125 3.6875 C-1.63473516 3.12474627 -1.63473516 3.12474627 0 0 Z " fill="#C5EDF0" transform="translate(456,516)"/>
<path d="M0 0 C0.66 0 1.32 0 2 0 C1.67 2.64 1.34 5.28 1 8 C1.33 8 1.66 8 2 8 C2.4726477 16.19256018 2.4726477 16.19256018 0.5 19.5625 C0.005 20.036875 -0.49 20.51125 -1 21 C-0.67 18.69 -0.34 16.38 0 14 C-1.79553415 16.69330122 -2.42696461 18.1460601 -3.125 21.1875 C-3.41375 22.445625 -3.7025 23.70375 -4 25 C-4.33 25 -4.66 25 -5 25 C-5.08159574 20.83861737 -4.98248524 17.0527516 -4 13 C-3.34 13 -2.68 13 -2 13 C-1.93941406 12.22914063 -1.87882812 11.45828125 -1.81640625 10.6640625 C-1.69072266 9.15972656 -1.69072266 9.15972656 -1.5625 7.625 C-1.48128906 6.62726563 -1.40007812 5.62953125 -1.31640625 4.6015625 C-1 2 -1 2 0 0 Z " fill="#242328" transform="translate(350,475)"/>
<path d="M0 0 C1.23830391 3.71491174 0.51862394 4.50459099 -1 8 C-1.50217708 9.80625998 -1.98098146 11.61916346 -2.4375 13.4375 C-3.55032024 17.63896416 -4.85870668 21.2272451 -7 25 C-7.33 25 -7.66 25 -8 25 C-7.79359361 16.68745189 -6.07997895 6.07997895 0 0 Z " fill="#2F2E3C" transform="translate(381,436)"/>
<path d="M0 0 C0.66 0.66 1.32 1.32 2 2 C1.53878342 6.87571811 0.14993183 11.63666217 -1.0625 16.375 C-1.24876953 17.11105469 -1.43503906 17.84710938 -1.62695312 18.60546875 C-2.08247457 20.40419444 -2.5409355 22.20217529 -3 24 C-3.99 24 -4.98 24 -6 24 C-5.25828891 18.73129366 -3.89090385 13.73023369 -2.4375 8.625 C-2.20353516 7.79355469 -1.96957031 6.96210938 -1.72851562 6.10546875 C-1.15517202 4.06951391 -0.5779756 2.03464473 0 0 Z " fill="#716350" transform="translate(504,472)"/>
<path d="M0 0 C0 0.66 0 1.32 0 2 C-1.65 2 -3.3 2 -5 2 C-5 2.66 -5 3.32 -5 4 C-7.58157368 4.53132389 -10.16461756 5.05034379 -12.75 5.5625 C-13.47960937 5.71396484 -14.20921875 5.86542969 -14.9609375 6.02148438 C-18.66557073 6.74557178 -21.39322322 7.09817231 -25 6 C-21.25480237 3.8404315 -17.22322333 2.89906135 -13.0625 1.875 C-12.35931641 1.69324219 -11.65613281 1.51148438 -10.93164062 1.32421875 C-7.21739776 0.3982688 -3.83105622 -0.22491524 0 0 Z " fill="#3C4345" transform="translate(589,548)"/>
<path d="M0 0 C0.87840996 3.09720845 0.99435406 4.90645403 0 8 C0.66 8 1.32 8 2 8 C0.82713348 17.33041575 0.82713348 17.33041575 -2.625 20.125 C-3.40875 20.41375 -4.1925 20.7025 -5 21 C-4.3900874 16.01155691 -3.36525565 11.39844654 -1.9375 6.5625 C-1.57527344 5.32628906 -1.21304687 4.09007812 -0.83984375 2.81640625 C-0.56269531 1.88699219 -0.28554688 0.95757812 0 0 Z " fill="#B2D0DD" transform="translate(443,509)"/>
<path d="M0 0 C0.66 0 1.32 0 2 0 C3.59401397 4.03072322 2.37091031 7.1521963 1.1875 11.1875 C0.83042969 12.43917969 0.47335937 13.69085938 0.10546875 14.98046875 C-1 18 -1 18 -3 19 C-3.33 16.03 -3.66 13.06 -4 10 C-3.01 10.495 -3.01 10.495 -2 11 C-1.93941406 10.28972656 -1.87882812 9.57945312 -1.81640625 8.84765625 C-1.69072266 7.46900391 -1.69072266 7.46900391 -1.5625 6.0625 C-1.48128906 5.14597656 -1.40007812 4.22945313 -1.31640625 3.28515625 C-1 1 -1 1 0 0 Z " fill="#C3EDF1" transform="translate(464,480)"/>
<path d="M0 0 C0.33 0 0.66 0 1 0 C2.03590199 5.05002222 2.10251672 9.87416389 2 15 C0.02 15.66 -1.96 16.32 -4 17 C-2.07289294 5.47835991 -2.07289294 5.47835991 0 0 Z " fill="#545456" transform="translate(516,498)"/>
<path d="M0 0 C-0.33 0.99 -0.66 1.98 -1 3 C-5.36995979 4.97688657 -9.23874777 5.44085669 -14 5 C-16.2109375 3.48046875 -16.2109375 3.48046875 -18 2 C-11.93184478 0.77100654 -6.20104812 -0.27560214 0 0 Z " fill="#D8DCDA" transform="translate(583,448)"/>
<path d="M0 0 C0 0.33 0 0.66 0 1 C-1.98 1 -3.96 1 -6 1 C-6 1.66 -6 2.32 -6 3 C-7.89385437 3.50744423 -9.79018666 4.00564574 -11.6875 4.5 C-12.74324219 4.7784375 -13.79898437 5.056875 -14.88671875 5.34375 C-17.72339867 5.94169508 -20.12156853 6.03943057 -23 6 C-25.73774618 6.92745649 -25.73774618 6.92745649 -28 8 C-24.82398149 3.66906567 -21.46111538 3.25752182 -16.453125 2.4375 C-13.84579895 2.0434823 -13.84579895 2.0434823 -10.875 0.875 C-7.10630721 -0.27199346 -3.93000618 -0.13551745 0 0 Z " fill="#2B2843" transform="translate(488,571)"/>
<path d="M0 0 C1.32 0.66 2.64 1.32 4 2 C3.44687265 6.02992782 2.8441938 10.02022924 2 14 C1.34 12.68 0.68 11.36 0 10 C-0.66 12.31 -1.32 14.62 -2 17 C-2.66 17 -3.32 17 -4 17 C-3.67 14.36 -3.34 11.72 -3 9 C-2.34 9 -1.68 9 -1 9 C-0.67 6.03 -0.34 3.06 0 0 Z " fill="#262627" transform="translate(369,407)"/>
<path d="M0 0 C0.66 0 1.32 0 2 0 C1.29791463 6.33654266 -0.34372204 12.30812246 -2.0625 18.4375 C-2.34416016 19.45521484 -2.62582031 20.47292969 -2.91601562 21.52148438 C-3.60682444 24.01542128 -4.30157818 26.50818649 -5 29 C-6.28253196 25.36171944 -5.70925239 22.83700957 -4.78515625 19.140625 C-4.37426758 17.46806641 -4.37426758 17.46806641 -3.95507812 15.76171875 C-3.66052734 14.60285156 -3.36597656 13.44398438 -3.0625 12.25 C-2.77181641 11.07566406 -2.48113281 9.90132813 -2.18164062 8.69140625 C-1.46270641 5.79209777 -0.73520767 2.89521676 0 0 Z " fill="#94E3DE" transform="translate(482,481)"/>
<path d="M0 0 C0.99 0 1.98 0 3 0 C3.33 0.66 3.66 1.32 4 2 C8.455 1.505 8.455 1.505 13 1 C13 1.66 13 2.32 13 3 C10.69 3.33 8.38 3.66 6 4 C6 4.66 6 5.32 6 6 C3.36 6 0.72 6 -2 6 C-1.34 4.02 -0.68 2.04 0 0 Z " fill="#7FD9EA" transform="translate(458,523)"/>
<path d="M0 0 C-2 2 -2 2 -5 3 C-5 3.66 -5 4.32 -5 5 C-6.65 5.33 -8.3 5.66 -10 6 C-10.33 4.68 -10.66 3.36 -11 2 C-13.31 2 -15.62 2 -18 2 C-18 1.67 -18 1.34 -18 1 C-15.75152519 0.63627613 -13.50113812 0.28435904 -11.25 -0.0625 C-9.99703125 -0.25972656 -8.7440625 -0.45695312 -7.453125 -0.66015625 C-4.49983411 -0.95080818 -2.7397586 -0.98935727 0 0 Z " fill="#515355" transform="translate(590,506)"/>
<path d="M0 0 C0.33 0.66 0.66 1.32 1 2 C5.62 2 10.24 2 15 2 C14.34 3.32 13.68 4.64 13 6 C12.43796875 5.82597656 11.8759375 5.65195312 11.296875 5.47265625 C8.75443245 4.94946654 6.81547663 5.09795162 4.25 5.4375 C3.45078125 5.53933594 2.6515625 5.64117187 1.828125 5.74609375 C1.22484375 5.82988281 0.6215625 5.91367187 0 6 C0 4.02 0 2.04 0 0 Z " fill="#3A3F3F" transform="translate(564,506)"/>
<path d="M0 0 C-1.375 1.5 -1.375 1.5 -3 3 C-3.66 3 -4.32 3 -5 3 C-5.10957031 3.63808594 -5.21914063 4.27617187 -5.33203125 4.93359375 C-5.49058594 5.75988281 -5.64914062 6.58617187 -5.8125 7.4375 C-5.96332031 8.26121094 -6.11414063 9.08492188 -6.26953125 9.93359375 C-6.51058594 10.61550781 -6.75164062 11.29742187 -7 12 C-7.99 12.33 -8.98 12.66 -10 13 C-10.33 13.99 -10.66 14.98 -11 16 C-10.5653312 11.91411329 -9.84920147 8.07099685 -8.6875 4.125 C-8.46449219 3.36445313 -8.24148438 2.60390625 -8.01171875 1.8203125 C-7 0 -7 0 -5.08203125 -0.8203125 C-3 -1 -3 -1 0 0 Z " fill="#E7E2DF" transform="translate(517,460)"/>
<path d="M0 0 C1.125 3.75 1.125 3.75 0 6 C5.94 5.505 5.94 5.505 12 5 C7.5 9.5 7.5 9.5 3.25 9.75 C2.45078125 9.80671875 1.6515625 9.8634375 0.828125 9.921875 C0.22484375 9.94765625 -0.3784375 9.9734375 -1 10 C-1 9.34 -1 8.68 -1 8 C-3.31 8.33 -5.62 8.66 -8 9 C-5 7 -5 7 -2 7 C-1.34 4.69 -0.68 2.38 0 0 Z " fill="#265375" transform="translate(456,523)"/>
<path d="M0 0 C0.66 0.66 1.32 1.32 2 2 C1.67 2.721875 1.34 3.44375 1 4.1875 C-0.27917472 7.28768083 -0.27917472 7.28768083 0 12 C5.445 11.505 5.445 11.505 11 11 C11 11.66 11 12.32 11 13 C9.2508503 13.33776684 7.50063855 13.67003671 5.75 14 C4.28820312 14.2784375 4.28820312 14.2784375 2.796875 14.5625 C0 15 0 15 -4 15 C-3.52229477 13.06213915 -3.04278429 11.12472326 -2.5625 9.1875 C-2.29566406 8.10855469 -2.02882813 7.02960937 -1.75390625 5.91796875 C-1.23922588 3.9259157 -0.65062825 1.95188476 0 0 Z " fill="#C6A396" transform="translate(480,511)"/>
<path d="M0 0 C2 1 2 1 2.75 2.75 C3.09205223 5.82847006 2.60445116 7.34916765 1 10 C-2.62830387 11.69835501 -4.15510125 12.28163292 -8 11 C-7.34 10.67 -6.68 10.34 -6 10 C-5.67 9.01 -5.34 8.02 -5 7 C-4.34 6.71125 -3.68 6.4225 -3 6.125 C-0.70849401 5.1446618 -0.70849401 5.1446618 -0.25 2.375 C-0.1675 1.59125 -0.085 0.8075 0 0 Z " fill="#333436" transform="translate(618,492)"/>
<path d="M0 0 C4.29 0.33 8.58 0.66 13 1 C13 1.66 13 2.32 13 3 C15.97 3.495 15.97 3.495 19 4 C19 4.33 19 4.66 19 5 C12.4 5.33 5.8 5.66 -1 6 C-1 5.67 -1 5.34 -1 5 C0.98 4.34 2.96 3.68 5 3 C5 2.34 5 1.68 5 1 C3.35 1 1.7 1 0 1 C0 0.67 0 0.34 0 0 Z " fill="#646967" transform="translate(595,460)"/>
<path d="M0 0 C0.66 0.33 1.32 0.66 2 1 C-1.46773321 4.46773321 -6.58572836 4.87272374 -11.37109375 5.125 C-13.24785842 5.125 -15.12447494 5.06820091 -17 5 C-17 4.01 -17 3.02 -17 2 C-15.85660156 1.93941406 -14.71320313 1.87882813 -13.53515625 1.81640625 C-12.04425695 1.73201572 -10.55337225 1.64736698 -9.0625 1.5625 C-8.30775391 1.52318359 -7.55300781 1.48386719 -6.77539062 1.44335938 C-3.08055813 1.55961976 -3.08055813 1.55961976 0 0 Z " fill="#4C4A59" transform="translate(519,566)"/>
<path d="M0 0 C0.33 0 0.66 0 1 0 C1 2.64 1 5.28 1 8 C0.34 8 -0.32 8 -1 8 C-0.67 11.63 -0.34 15.26 0 19 C-0.33 18.01 -0.66 17.02 -1 16 C-1.99 16 -2.98 16 -4 16 C-4.25 9.375 -4.25 9.375 -2 6 C-1.29835358 4.01200182 -0.62627128 2.01301483 0 0 Z " fill="#424647" transform="translate(560,456)"/>
<path d="M0 0 C0 0.66 0 1.32 0 2 C0.66 2.33 1.32 2.66 2 3 C-3.16044765 4.512545 -6.65998179 5.33500455 -12 4 C-8.41084094 -0.78554541 -5.58334594 -0.37222306 0 0 Z " fill="#464C4A" transform="translate(600,461)"/>
<path d="M0 0 C-0.33 0.99 -0.66 1.98 -1 3 C-1.66 2.67 -2.32 2.34 -3 2 C-3.33 2.99 -3.66 3.98 -4 5 C-5.98 5 -7.96 5 -10 5 C-10 4.34 -10 3.68 -10 3 C-10.515625 3.165 -11.03125 3.33 -11.5625 3.5 C-14.73363876 4.15049 -17.77218334 4.0620734 -21 4 C-20.67 3.01 -20.34 2.02 -20 1 C-20 1.66 -20 2.32 -20 3 C-18.89140625 2.7834375 -17.7828125 2.566875 -16.640625 2.34375 C-15.17712047 2.06230682 -13.71357673 1.7810675 -12.25 1.5 C-11.52039063 1.35691406 -10.79078125 1.21382812 -10.0390625 1.06640625 C-6.60656468 0.41111121 -3.50830509 0 0 0 Z " fill="#555355" transform="translate(514,519)"/>
<path d="M0 0 C0.99 0.33 1.98 0.66 3 1 C2.01 4.96 1.02 8.92 0 13 C-0.33 12.34 -0.66 11.68 -1 11 C-1.66 11 -2.32 11 -3 11 C-3 7.7 -3 4.4 -3 1 C-2.01 1.495 -2.01 1.495 -1 2 C-0.67 1.34 -0.34 0.68 0 0 Z " fill="#24344D" transform="translate(451,471)"/>
<path d="M0 0 C-2.06700735 3.10051102 -2.65930178 3.74435825 -6 5 C-8.0742625 5.28480806 -10.16071439 5.48874224 -12.25 5.625 C-13.32765625 5.69976562 -14.4053125 5.77453125 -15.515625 5.8515625 C-16.33546875 5.90054687 -17.1553125 5.94953125 -18 6 C-14.96474514 3.97649676 -13.80573798 3.67875982 -10.3125 3.375 C-9.50425781 3.30023438 -8.69601562 3.22546875 -7.86328125 3.1484375 C-6.94095703 3.07496094 -6.94095703 3.07496094 -6 3 C-6 2.34 -6 1.68 -6 1 C-6.5775 1.350625 -7.155 1.70125 -7.75 2.0625 C-10.39786506 3.16577711 -11.33185326 2.80156509 -14 2 C-4.58997722 -1.62870159 -4.58997722 -1.62870159 0 0 Z " fill="#4F3B35" transform="translate(510,457)"/>
<path d="M0 0 C2.64 0 5.28 0 8 0 C7.67 0.99 7.34 1.98 7 3 C4.67328146 3.68939809 2.33932406 4.35466922 0 5 C-1.90170054 6.47761659 -1.90170054 6.47761659 -3 8 C-3.66 7.34 -4.32 6.68 -5 6 C-4.34 6 -3.68 6 -3 6 C-3 4.68 -3 3.36 -3 2 C-2.01 2 -1.02 2 0 2 C0 1.34 0 0.68 0 0 Z " fill="#3D4142" transform="translate(545,512)"/>
<path d="M0 0 C2.33302989 0.03762951 4.66713319 0.04665734 7 0 C7 0.33 7 0.66 7 1 C5.60974609 1.19916016 5.60974609 1.19916016 4.19140625 1.40234375 C2.99386719 1.57894531 1.79632812 1.75554687 0.5625 1.9375 C-0.63246094 2.11152344 -1.82742188 2.28554688 -3.05859375 2.46484375 C-5.87955676 2.68985213 -5.87955676 2.68985213 -7 4 C-8.68183948 4.23287008 -10.3712416 4.41264166 -12.0625 4.5625 C-12.98160156 4.64628906 -13.90070312 4.73007812 -14.84765625 4.81640625 C-15.55792969 4.87699219 -16.26820313 4.93757813 -17 5 C-16.67 4.34 -16.34 3.68 -16 3 C-14.02 3 -12.04 3 -10 3 C-9.67 2.01 -9.34 1.02 -9 0 C-5.44378864 -1.18540379 -3.66291141 -0.63396544 0 0 Z " fill="#595D5C" transform="translate(606,442)"/>
<path d="M0 0 C0 0.66 0 1.32 0 2 C1.65 2 3.3 2 5 2 C4.67 2.66 4.34 3.32 4 4 C-0.36886712 5.19150921 -2.95634201 5.021829 -7 3 C-7 3.66 -7 4.32 -7 5 C-7.99 5.33 -8.98 5.66 -10 6 C-10 4.35 -10 2.7 -10 1 C-6.56484998 0.37542727 -3.50935186 0 0 0 Z " fill="#3A3A3E" transform="translate(504,522)"/>
<path d="M0 0 C1.26328125 0.02707031 2.5265625 0.05414063 3.828125 0.08203125 C4.79234375 0.11683594 5.7565625 0.15164063 6.75 0.1875 C6.09 3.1575 5.43 6.1275 4.75 9.1875 C3.82461831 5.48597322 3.66825838 4.55291838 4.75 1.1875 C3.64591797 1.4040625 3.64591797 1.4040625 2.51953125 1.625 C1.54371094 1.810625 0.56789063 1.99625 -0.4375 2.1875 C-1.88189453 2.4659375 -1.88189453 2.4659375 -3.35546875 2.75 C-6.0434206 3.15627612 -8.53771019 3.26683572 -11.25 3.1875 C-7.67487951 -0.25219926 -4.83224625 -0.13422906 0 0 Z " fill="#214958" transform="translate(484.25,462.8125)"/>
<path d="M0 0 C-0.33 2.64 -0.66 5.28 -1 8 C-1.66 6.68 -2.32 5.36 -3 4 C-7.14093698 3.79029441 -7.14093698 3.79029441 -11 5 C-11 4.34 -11 3.68 -11 3 C-12.65 3 -14.3 3 -16 3 C-16 2.67 -16 2.34 -16 2 C-13.89627599 1.66388432 -11.79200343 1.33120054 -9.6875 1 C-8.51574219 0.814375 -7.34398437 0.62875 -6.13671875 0.4375 C-3 0 -3 0 0 0 Z " fill="#CEB49B" transform="translate(507,461)"/>
<path d="M0 0 C0.99 0.495 0.99 0.495 2 1 C1.98839844 1.63808594 1.97679687 2.27617187 1.96484375 2.93359375 C1.95582031 3.75988281 1.94679688 4.58617187 1.9375 5.4375 C1.92589844 6.26121094 1.91429687 7.08492188 1.90234375 7.93359375 C1.76732652 9.99163938 1.76732652 9.99163938 3 11 C3.07258946 13.18639453 3.08373783 15.37500389 3.0625 17.5625 C3.05347656 18.76003906 3.04445313 19.95757812 3.03515625 21.19140625 C3.02355469 22.11824219 3.01195312 23.04507812 3 24 C-1.49655986 17.25516021 -0.10717645 7.81197246 0 0 Z " fill="#CCCCCA" transform="translate(561,451)"/>
<path d="M0 0 C-3.06246747 1.78409802 -5.22079273 2.22880021 -8.75 2.125 C-9.54921875 2.10695313 -10.3484375 2.08890625 -11.171875 2.0703125 C-11.77515625 2.04710937 -12.3784375 2.02390625 -13 2 C-13 2.66 -13 3.32 -13 4 C-16.63 4.33 -20.26 4.66 -24 5 C-24 4.34 -24 3.68 -24 3 C-21.94921875 2.77213542 -19.8984375 2.54427083 -17.84765625 2.31640625 C-15.98859771 2.18113386 -15.98859771 2.18113386 -15 1 C-13.05180421 0.57546778 -11.09062639 0.209675 -9.125 -0.125 C-7.52011719 -0.40730469 -7.52011719 -0.40730469 -5.8828125 -0.6953125 C-3 -1 -3 -1 0 0 Z " fill="#282C2E" transform="translate(568,553)"/>
<path d="M0 0 C-3.67545909 2.35229382 -6.72774326 2 -11 2 C-12.7015625 2.495 -12.7015625 2.495 -14.4375 3 C-18.54408833 4.15272655 -21.75815612 4.14883663 -26 4 C-22.28405001 1.79545972 -18.31624468 1.09307126 -14.125 0.3125 C-13.43019531 0.17005859 -12.73539063 0.02761719 -12.01953125 -0.11914062 C-7.725843 -0.93178784 -4.25521163 -0.993772 0 0 Z " fill="#444A48" transform="translate(640,540)"/>
<path d="M0 0 C-0.85714286 8.57142857 -0.85714286 8.57142857 -3 12 C-3.66 12 -4.32 12 -5 12 C-5.8125 8.8125 -5.8125 8.8125 -6 5 C-1.95744681 0 -1.95744681 0 0 0 Z " fill="#1D2C41" transform="translate(440,518)"/>
<path d="M0 0 C0.66 0.33 1.32 0.66 2 1 C1.41012695 3.62897735 0.80395811 6.25225094 0.1875 8.875 C0.02185547 9.62136719 -0.14378906 10.36773437 -0.31445312 11.13671875 C-1.66015625 16.7734375 -1.66015625 16.7734375 -5 19 C-4.35561067 16.39546825 -3.7095496 13.7913709 -3.0625 11.1875 C-2.88009766 10.44951172 -2.69769531 9.71152344 -2.50976562 8.95117188 C-1.7577385 5.92939016 -0.98514427 2.95543282 0 0 Z " fill="#4C7C6E" transform="translate(487,471)"/>
<path d="M0 0 C0.74056641 0.00451172 1.48113281 0.00902344 2.24414062 0.01367188 C4.05862899 0.02537825 5.87307534 0.04331102 7.6875 0.0625 C6.6975 1.5475 6.6975 1.5475 5.6875 3.0625 C3.71630859 3.3112793 3.71630859 3.3112793 1.3359375 3.13671875 C0.48515625 3.08193359 -0.365625 3.02714844 -1.2421875 2.97070312 C-2.13164063 2.89787109 -3.02109375 2.82503906 -3.9375 2.75 C-4.8346875 2.68876953 -5.731875 2.62753906 -6.65625 2.56445312 C-8.87636306 2.41093467 -11.09444979 2.24306839 -13.3125 2.0625 C-13.3125 1.7325 -13.3125 1.4025 -13.3125 1.0625 C-8.8746439 -0.04915232 -4.54293614 -0.05277763 0 0 Z " fill="#272B2A" transform="translate(637.3125,535.9375)"/>
<path d="M0 0 C-2.63494323 1.75662882 -4.03998982 2.41863393 -7 3.125 C-7.680625 3.29257812 -8.36125 3.46015625 -9.0625 3.6328125 C-11 4 -11 4 -14 4 C-13.67 2.68 -13.34 1.36 -13 0 C-12.34 0 -11.68 0 -11 0 C-10.443125 -0.185625 -9.88625 -0.37125 -9.3125 -0.5625 C-6.07189098 -1.17558819 -3.22422523 -0.55803898 0 0 Z " fill="#95B9CB" transform="translate(451,530)"/>
<path d="M0 0 C1.32 0 2.64 0 4 0 C3.44687265 4.02992782 2.8441938 8.02022924 2 12 C1.34 12 0.68 12 0 12 C0 8.04 0 4.08 0 0 Z " fill="#707173" transform="translate(528,465)"/>
<path d="M0 0 C-0.33 1.98 -0.66 3.96 -1 6 C-6.53846154 5.38461538 -6.53846154 5.38461538 -8.875 3.4375 C-9.24625 2.963125 -9.6175 2.48875 -10 2 C-6.38026598 0.68373308 -3.90432869 0 0 0 Z " fill="#3E4342" transform="translate(612,458)"/>
<path d="M0 0 C0.33 0.66 0.66 1.32 1 2 C2.84697374 2.60815184 2.84697374 2.60815184 5 3 C7.66666667 3.66666667 10.33333333 4.33333333 13 5 C9.86501708 6.85776765 7.62528568 7.20140476 4 7 C4 6.34 4 5.68 4 5 C2.35 5.66 0.7 6.32 -1 7 C-0.67 4.69 -0.34 2.38 0 0 Z " fill="#5F6563" transform="translate(563,484)"/>
<path d="M0 0 C0.66 0 1.32 0 2 0 C1.38221953 2.60607392 0.75612789 5.20965697 0.125 7.8125 C-0.04902344 8.55048828 -0.22304688 9.28847656 -0.40234375 10.04882812 C-1.24492511 13.49717037 -2.01285575 16.01928362 -4 19 C-3.59060025 12.23784552 -2.43046191 6.32837252 0 0 Z " fill="#287177" transform="translate(471,467)"/>
<path d="M0 0 C1.6852084 4.07679159 0.16939007 6.83075593 -1.4375 10.75 C-1.91058594 11.92046875 -2.38367188 13.0909375 -2.87109375 14.296875 C-3.24363281 15.18890625 -3.61617188 16.0809375 -4 17 C-4.33 17 -4.66 17 -5 17 C-4.67 13.37 -4.34 9.74 -4 6 C-3.34 6 -2.68 6 -2 6 C-1.34 4.02 -0.68 2.04 0 0 Z " fill="#29292F" transform="translate(394,418)"/>
<path d="M0 0 C0.33 0 0.66 0 1 0 C2.95827192 4.79851364 3.11684311 8.79917914 2.625 13.875 C2.56828125 14.56335938 2.5115625 15.25171875 2.453125 15.9609375 C2.31307172 17.64157689 2.15807755 19.32096005 2 21 C1.67 21 1.34 21 1 21 C0.67 14.07 0.34 7.14 0 0 Z " fill="#656668" transform="translate(615,467)"/>
<path d="M0 0 C-0.33 1.32 -0.66 2.64 -1 4 C-1 3.01 -1 2.02 -1 1 C-2.65 1.33 -4.3 1.66 -6 2 C-6 3.98 -6 5.96 -6 8 C-6.33 6.68 -6.66 5.36 -7 4 C-9.97 3.67 -12.94 3.34 -16 3 C-16 2.67 -16 2.34 -16 2 C-14.08404518 1.66259915 -12.16720278 1.33023588 -10.25 1 C-9.18265625 0.814375 -8.1153125 0.62875 -7.015625 0.4375 C-4 0 -4 0 0 0 Z " fill="#6BBBC7" transform="translate(489,464)"/>
<path d="M0 0 C1.65 0 3.3 0 5 0 C3.84414715 3.91211733 2.64465038 6.8745041 0 10 C-1.125 2.25 -1.125 2.25 0 0 Z " fill="#DACFB3" transform="translate(491,464)"/>
<path d="M0 0 C0.66 0 1.32 0 2 0 C1.34 3.3 0.68 6.6 0 10 C-1.32 10.33 -2.64 10.66 -4 11 C-2.25 3.375 -2.25 3.375 0 0 Z " fill="#313134" transform="translate(366,426)"/>
<path d="M0 0 C-0.66 1.65 -1.32 3.3 -2 5 C-8.0546875 5.9765625 -8.0546875 5.9765625 -10 6 C-10.66 5.34 -11.32 4.68 -12 4 C-10.02 3.67 -8.04 3.34 -6 3 C-6 2.34 -6 1.68 -6 1 C-3.92446352 0.4465236 -2.15634036 0 0 0 Z " fill="#373B39" transform="translate(598,440)"/>
<path d="M0 0 C1.25127906 3.54667178 0.72285053 5.72253438 -0.4375 9.25 C-0.72496094 10.14203125 -1.01242187 11.0340625 -1.30859375 11.953125 C-1.53675781 12.62859375 -1.76492188 13.3040625 -2 14 C-2.99 14 -3.98 14 -5 14 C-4.71125 13.34 -4.4225 12.68 -4.125 12 C-3.21012074 9.56032196 -2.54102545 7.27300865 -1.9375 4.75 C-1 1 -1 1 0 0 Z " fill="#B4E8F2" transform="translate(456,516)"/>
<path d="M0 0 C0.66 0 1.32 0 2 0 C1.5547115 5.27315333 0.91626837 10.01770224 -1 15 C-1.33 15 -1.66 15 -2 15 C-1.85973717 12.68715544 -1.71264442 10.37472409 -1.5625 8.0625 C-1.48128906 6.77472656 -1.40007812 5.48695313 -1.31640625 4.16015625 C-1 1 -1 1 0 0 Z " fill="#96E3E3" transform="translate(486,465)"/>
<path d="M0 0 C1.73497427 2.68921012 1.45873629 4.80645563 1.25 7.9375 C0.59 7.2775 -0.07 6.6175 -0.75 5.9375 C-0.75 4.9475 -0.75 3.9575 -0.75 2.9375 C-2.73 2.9375 -4.71 2.9375 -6.75 2.9375 C-6.42 1.9475 -6.09 0.9575 -5.75 -0.0625 C-3.3022637 -1.20477694 -2.34109565 -1.4213795 0 0 Z " fill="#404546" transform="translate(552.75,450.0625)"/>
<path d="M0 0 C1.85776765 3.13498292 2.20140476 5.37471432 2 9 C0.02 9.99 0.02 9.99 -2 11 C-1.85892253 9.54119891 -1.71197585 8.08296449 -1.5625 6.625 C-1.48128906 5.81289063 -1.40007812 5.00078125 -1.31640625 4.1640625 C-1 2 -1 2 0 0 Z " fill="#28282A" transform="translate(380,540)"/>
<path d="M0 0 C0.66 0 1.32 0 2 0 C2 2.97 2 5.94 2 9 C-1.2830098 10.6415049 -4.42545033 9.51888624 -8 9 C-8 8.67 -8 8.34 -8 8 C-5.69 8 -3.38 8 -1 8 C-0.67 5.36 -0.34 2.72 0 0 Z " fill="#523834" transform="translate(492,516)"/>
<path d="M0 0 C0 0.66 0 1.32 0 2 C-6.28571429 4.42857143 -6.28571429 4.42857143 -10 3 C-10 2.34 -10 1.68 -10 1 C-3.71428571 -1.42857143 -3.71428571 -1.42857143 0 0 Z " fill="#422B37" transform="translate(484,526)"/>
<path d="M0 0 C0 1.32 0 2.64 0 4 C-2.31 4.33 -4.62 4.66 -7 5 C-7 4.34 -7 3.68 -7 3 C-7.66 2.67 -8.32 2.34 -9 2 C-2.25 0 -2.25 0 0 0 Z " fill="#DEDFE1" transform="translate(605,498)"/>
<path d="M0 0 C0.66 0 1.32 0 2 0 C1.71831703 1.95979427 1.42433283 3.91782378 1.125 5.875 C0.96257812 6.96554687 0.80015625 8.05609375 0.6328125 9.1796875 C0 12 0 12 -2 14 C-1.85866501 12.22880197 -1.71176792 10.45804713 -1.5625 8.6875 C-1.48128906 7.70136719 -1.40007812 6.71523438 -1.31640625 5.69921875 C-1 3 -1 3 0 0 Z " fill="#EEE7DE" transform="translate(503,485)"/>
<path d="M0 0 C1.65 0 3.3 0 5 0 C5 0.66 5 1.32 5 2 C6.32 2 7.64 2 9 2 C9 2.66 9 3.32 9 4 C6.03 4 3.06 4 0 4 C0 2.68 0 1.36 0 0 Z " fill="#1E2A45" transform="translate(480,459)"/>
<path d="M0 0 C0.66 0.33 1.32 0.66 2 1 C2 1.99 2 2.98 2 4 C-1.63 4.33 -5.26 4.66 -9 5 C-8.67 4.34 -8.34 3.68 -8 3 C-5.67793475 2.29508733 -3.34406932 1.62787571 -1 1 C-0.67 0.67 -0.34 0.34 0 0 Z " fill="#424745" transform="translate(569,446)"/>
<path d="M0 0 C0.99 0.33 1.98 0.66 3 1 C2.2884375 1.5878125 2.2884375 1.5878125 1.5625 2.1875 C-0.35948699 4.41700491 -0.48726031 6.14330744 -1 9 C-1.66 9.66 -2.32 10.32 -3 11 C-3.75 8.875 -3.75 8.875 -4 6 C-2.0625 2.6875 -2.0625 2.6875 0 0 Z " fill="#292831" transform="translate(384,424)"/>
<path d="M0 0 C0 1.65 0 3.3 0 5 C-1.98 5 -3.96 5 -6 5 C-5.625 3.0625 -5.625 3.0625 -5 1 C-3 0 -3 0 0 0 Z " fill="#4B4C4E" transform="translate(517,514)"/>
<path d="M0 0 C0.66 0 1.32 0 2 0 C2.35233161 5.37305699 2.35233161 5.37305699 2 8 C0 10 0 10 -2 11 C-1.125 3.375 -1.125 3.375 0 0 Z " fill="#646564" transform="translate(538,495)"/>
<path d="M0 0 C0 0.99 0 1.98 0 3 C-6.28571429 5.42857143 -6.28571429 5.42857143 -10 4 C-9.01 4 -8.02 4 -7 4 C-6.67 3.01 -6.34 2.02 -6 1 C-4 0 -4 0 0 0 Z " fill="#25394D" transform="translate(466,464)"/>
<path d="M0 0 C0.33 0 0.66 0 1 0 C0.5547115 5.27315333 -0.08373163 10.01770224 -2 15 C-3.1171875 13.359375 -3.1171875 13.359375 -4 11 C-3.3203125 8.203125 -3.3203125 8.203125 -2.125 5.25 C-1.73570312 4.26515625 -1.34640625 3.2803125 -0.9453125 2.265625 C-0.63335937 1.51796875 -0.32140625 0.7703125 0 0 Z " fill="#C3F4F6" transform="translate(460,500)"/>
<path d="M0 0 C0.33 0 0.66 0 1 0 C1.33 3.63 1.66 7.26 2 11 C1.67 10.01 1.34 9.02 1 8 C0.34 8 -0.32 8 -1 8 C-1.33 9.65 -1.66 11.3 -2 13 C-3.18771723 9.57056481 -2.80226223 7.62215325 -1.5625 4.25 C-1.27503906 3.45078125 -0.98757813 2.6515625 -0.69140625 1.828125 C-0.46324219 1.22484375 -0.23507812 0.6215625 0 0 Z " fill="#767677" transform="translate(516,498)"/>
<path d="M0 0 C0.33 0 0.66 0 1 0 C1.63019694 10.15317287 1.63019694 10.15317287 -1 13.6875 C-1.66 14.120625 -2.32 14.55375 -3 15 C-2 10 -1 5 0 0 Z " fill="#2B2A38" transform="translate(367,475)"/>
<path d="M0 0 C1.11841676 3.35525029 0.91538821 3.97089854 -0.3125 7.125 C-0.57675781 7.82882812 -0.84101563 8.53265625 -1.11328125 9.2578125 C-2 11 -2 11 -4 12 C-2.7027027 2.7027027 -2.7027027 2.7027027 0 0 Z " fill="#2B2939" transform="translate(372,461)"/>
<path d="M0 0 C-3.20945602 2.8503026 -5.49988548 3.43451699 -9.75 3.6875 C-10.73484375 3.75324219 -11.7196875 3.81898438 -12.734375 3.88671875 C-13.48203125 3.92410156 -14.2296875 3.96148438 -15 4 C-10.34714182 0.89809455 -5.58467324 -0.33846504 0 0 Z " fill="#373D3F" transform="translate(604,544)"/>
<path d="M0 0 C0.99 0.33 1.98 0.66 3 1 C-1.76339144 3.23587762 -5.72036872 4.39081178 -11 5 C-11.99 5.33 -12.98 5.66 -14 6 C-13.67 5.01 -13.34 4.02 -13 3 C-12.22914063 2.86722656 -11.45828125 2.73445312 -10.6640625 2.59765625 C-9.66117188 2.42105469 -8.65828125 2.24445312 -7.625 2.0625 C-6.62726562 1.88847656 -5.62953125 1.71445312 -4.6015625 1.53515625 C-2.03090344 1.12287938 -2.03090344 1.12287938 0 0 Z " fill="#222626" transform="translate(604,531)"/>
<path d="M0 0 C0.33 0 0.66 0 1 0 C0.52060632 4.71403788 0.03165952 8.66579301 -2 13 C-2.33 13 -2.66 13 -3 13 C-2.88557539 11.39504433 -2.75805306 9.79101881 -2.625 8.1875 C-2.55539062 7.29417969 -2.48578125 6.40085937 -2.4140625 5.48046875 C-2 3 -2 3 0 0 Z " fill="#554637" transform="translate(508,461)"/>
<path d="M0 0 C0.66 0 1.32 0 2 0 C1.67702486 1.66870487 1.33986667 3.33465333 1 5 C0.85433594 5.75925781 0.70867187 6.51851563 0.55859375 7.30078125 C0.39488281 8.10902344 0.23117187 8.91726563 0.0625 9.75 C-0.09089844 10.52859375 -0.24429687 11.3071875 -0.40234375 12.109375 C-0.69818359 13.04523438 -0.69818359 13.04523438 -1 14 C-1.99 14.495 -1.99 14.495 -3 15 C-2.69163768 12.87439563 -2.37818386 10.74952935 -2.0625 8.625 C-1.88847656 7.44164062 -1.71445312 6.25828125 -1.53515625 5.0390625 C-1 2 -1 2 0 0 Z " fill="#222127" transform="translate(355,453)"/>
<path d="M0 0 C0.33 0 0.66 0 1 0 C1.125 5.75 1.125 5.75 0 8 C-0.99 8 -1.98 8 -3 8 C-3.33 8.66 -3.66 9.32 -4 10 C-3.4359146 6.05140217 -2.2568294 3.29120954 0 0 Z " fill="#26262D" transform="translate(399,408)"/>
<path d="M0 0 C0.99 0.99 1.98 1.98 3 3 C2.6875 6.1875 2.6875 6.1875 2 9 C0.68 9.33 -0.64 9.66 -2 10 C-1.34 6.7 -0.68 3.4 0 0 Z " fill="#162131" transform="translate(434,526)"/>
<path d="M0 0 C1.17571451 3.67410785 1.07366746 7.16929183 1 11 C0.34 11 -0.32 11 -1 11 C-1.66 11.99 -2.32 12.98 -3 14 C-2.40380045 9.13103697 -1.43023178 4.67209049 0 0 Z " fill="#A5BBCD" transform="translate(447,494)"/>
<path d="M0 0 C-0.33 1.32 -0.66 2.64 -1 4 C-3.97 3.67 -6.94 3.34 -10 3 C-6.64781163 0.76520776 -4.01177204 0 0 0 Z " fill="#4C5051" transform="translate(612,500)"/>
<path d="M0 0 C1.25541557 3.76624671 0.37061958 5.37188934 -1 9 C-1.99 9 -2.98 9 -4 9 C-4.33 9.66 -4.66 10.32 -5 11 C-4.67 9.35 -4.34 7.7 -4 6 C-3.01 5.67 -2.02 5.34 -1 5 C-0.67 3.35 -0.34 1.7 0 0 Z " fill="#32435F" transform="translate(449,485)"/>
<path d="M0 0 C0.66 0 1.32 0 2 0 C1.5251065 4.11574371 0.9789756 7.36383344 -1 11 C-1.02688151 9.35425434 -1.04634123 7.70838587 -1.0625 6.0625 C-1.07410156 5.14597656 -1.08570313 4.22945313 -1.09765625 3.28515625 C-1 1 -1 1 0 0 Z " fill="#232326" transform="translate(363,424)"/>
<path d="M0 0 C0.66 0.33 1.32 0.66 2 1 C2 3.31 2 5.62 2 8 C0.02 8.99 0.02 8.99 -2 10 C-1.33333333 6.66666667 -0.66666667 3.33333333 0 0 Z " fill="#232525" transform="translate(386,413)"/>
<path d="M0 0 C0.99 0 1.98 0 3 0 C3 0.66 3 1.32 3 2 C2.01 2.495 2.01 2.495 1 3 C0.53101037 5.8159849 0.53101037 5.8159849 0.375 9.0625 C0.30023437 10.16722656 0.22546875 11.27195312 0.1484375 12.41015625 C0.09945312 13.26480469 0.05046875 14.11945313 0 15 C-0.33 15 -0.66 15 -1 15 C-1.02685412 12.68756208 -1.04632841 10.3750373 -1.0625 8.0625 C-1.07410156 6.77472656 -1.08570313 5.48695313 -1.09765625 4.16015625 C-1 1 -1 1 0 0 Z " fill="#363C3B" transform="translate(564,489)"/>
<path d="M0 0 C0.66 0.66 1.32 1.32 2 2 C1.7578125 4.3828125 1.7578125 4.3828125 1.125 7.125 C0.92132813 8.03507812 0.71765625 8.94515625 0.5078125 9.8828125 C0.34023438 10.58148438 0.17265625 11.28015625 0 12 C-1.36398513 9.75700222 -2.05762059 8.50929167 -1.7578125 5.859375 C-1.171875 3.90625 -0.5859375 1.953125 0 0 Z " fill="#3A868C" transform="translate(466,484)"/>
<path d="M0 0 C0.99 0 1.98 0 3 0 C3.1875 2.375 3.1875 2.375 3 5 C2.01 5.66 1.02 6.32 0 7 C-0.93423645 3.98968256 -1.04449911 3.13349732 0 0 Z " fill="#E8DCB4" transform="translate(498,480)"/>
<path d="M0 0 C0.99 0 1.98 0 3 0 C2.67 1.65 2.34 3.3 2 5 C-0.64 5.33 -3.28 5.66 -6 6 C-3.35261084 4.5393715 -2.10551666 4 1 4 C1 3.34 1 2.68 1 2 C0.34 1.67 -0.32 1.34 -1 1 C-0.67 0.67 -0.34 0.34 0 0 Z " fill="#7CC6D5" transform="translate(470,522)"/>
<path d="M0 0 C0.33 0.66 0.66 1.32 1 2 C-0.32 3.32 -1.64 4.64 -3 6 C-3.99 5.67 -4.98 5.34 -6 5 C-5.34 4.67 -4.68 4.34 -4 4 C-3.67 3.01 -3.34 2.02 -3 1 C-2.01 0.67 -1.02 0.34 0 0 Z " fill="#383C3D" transform="translate(616,498)"/>
<path d="M0 0 C1.98 0 3.96 0 6 0 C6 0.66 6 1.32 6 2 C6.66 2.33 7.32 2.66 8 3 C5.69 3.33 3.38 3.66 1 4 C1.33 3.34 1.66 2.68 2 2 C1.34 1.34 0.68 0.68 0 0 Z " fill="#383C3D" transform="translate(529,516)"/>
<path d="M0 0 C0.66 0 1.32 0 2 0 C2 2.64 2 5.28 2 8 C1.01 8 0.02 8 -1 8 C-1.04241723 5.66705225 -1.04092937 3.33297433 -1 1 C-0.67 0.67 -0.34 0.34 0 0 Z " fill="#7BD9D8" transform="translate(475,504)"/>
<path d="M0 0 C0.99 0 1.98 0 3 0 C3 1.65 3 3.3 3 5 C1.35 5 -0.3 5 -2 5 C-2.33 4.01 -2.66 3.02 -3 2 C-2.01 2 -1.02 2 0 2 C0 1.34 0 0.68 0 0 Z " fill="#626461" transform="translate(596,480)"/>
<path d="M0 0 C0.99 0.33 1.98 0.66 3 1 C3 1.66 3 2.32 3 3 C1.02 3.99 -0.96 4.98 -3 6 C-3.33 5.34 -3.66 4.68 -4 4 C-3.34 4 -2.68 4 -2 4 C-2 3.01 -2 2.02 -2 1 C-1.34 0.67 -0.68 0.34 0 0 Z " fill="#2A2433" transform="translate(490,456)"/>
<path d="M0 0 C0.33 0 0.66 0 1 0 C1.39253254 4.44870215 0.15305957 7.14243493 -2 11 C-2.33 11 -2.66 11 -3 11 C-2.67 8.36 -2.34 5.72 -2 3 C-1.34 3 -0.68 3 0 3 C0 2.01 0 1.02 0 0 Z " fill="#282939" transform="translate(385,445)"/>
<path d="M0 0 C2.31 0 4.62 0 7 0 C7.33 1.65 7.66 3.3 8 5 C7.01 5.495 7.01 5.495 6 6 C5.67 5.01 5.34 4.02 5 3 C2.03 2.505 2.03 2.505 -1 2 C-0.67 1.34 -0.34 0.68 0 0 Z " fill="#313234" transform="translate(608,440)"/>
<path d="M0 0 C1.65 0 3.3 0 5 0 C5 0.66 5 1.32 5 2 C2.24921116 2.91692961 0.64051087 3.10886083 -2.1875 3.0625 C-4.0746875 3.0315625 -4.0746875 3.0315625 -6 3 C-6 2.67 -6 2.34 -6 2 C-4.02 2 -2.04 2 0 2 C0 1.34 0 0.68 0 0 Z " fill="#393D40" transform="translate(555,555)"/>
<path d="M0 0 C-0.33 0.99 -0.66 1.98 -1 3 C-3.97 2.67 -6.94 2.34 -10 2 C-10 1.67 -10 1.34 -10 1 C-6.56484998 0.37542727 -3.50935186 0 0 0 Z " fill="#505153" transform="translate(602,503)"/>
<path d="M0 0 C2 3 2 3 1.625 5.1875 C1.41875 5.785625 1.2125 6.38375 1 7 C0.34 7 -0.32 7 -1 7 C-1.33 7.99 -1.66 8.98 -2 10 C-1.54177532 6.53058454 -1.10868317 3.32604951 0 0 Z " fill="#D7CEC5" transform="translate(508,466)"/>
<path d="M0 0 C0.99 0 1.98 0 3 0 C3 0.66 3 1.32 3 2 C4.65 2.33 6.3 2.66 8 3 C7.67 3.66 7.34 4.32 7 5 C4.36 4.34 1.72 3.68 -1 3 C-0.67 2.01 -0.34 1.02 0 0 Z " fill="#393D3E" transform="translate(524,452)"/>
<path d="M0 0 C2 3 2 3 1.625 5.1875 C1.41875 5.785625 1.2125 6.38375 1 7 C0.34 7 -0.32 7 -1 7 C-1.33 7.66 -1.66 8.32 -2 9 C-1.125 1.125 -1.125 1.125 0 0 Z " fill="#7DE7EB" transform="translate(461,513)"/>
<path d="M0 0 C0.99 0 1.98 0 3 0 C3 1.65 3 3.3 3 5 C2.01 5.495 2.01 5.495 1 6 C0.34 5.67 -0.32 5.34 -1 5 C-0.67 3.35 -0.34 1.7 0 0 Z " fill="#E3DBD6" transform="translate(505,478)"/>
<path d="M0 0 C0.33 0.66 0.66 1.32 1 2 C1.99 2.33 2.98 2.66 4 3 C3.01 4.485 3.01 4.485 2 6 C1.01 6 0.02 6 -1 6 C-0.67 4.02 -0.34 2.04 0 0 Z " fill="#73D9DC" transform="translate(472,469)"/>
<path d="M0 0 C0.66 0 1.32 0 2 0 C2 1.65 2 3.3 2 5 C2.66 5 3.32 5 4 5 C4 5.99 4 6.98 4 8 C3.01 8 2.02 8 1 8 C0.67 5.36 0.34 2.72 0 0 Z " fill="#58595B" transform="translate(527,457)"/>
</svg>
